<svg width="132" height="117" viewBox="0 0 132 117" fill="none" xmlns="http://www.w3.org/2000/svg">
<rect x="41.1614" y="0.698242" width="89.8726" height="84.1638" rx="4" fill="#FDF4DD"/>
<path d="M41.1614 4.69824C41.1614 2.48911 42.9522 0.698242 45.1614 0.698242H127.034C129.243 0.698242 131.034 2.4891 131.034 4.69824V7.33301H41.1614V4.69824Z" fill="#3C7477"/>
<circle cx="46.1532" cy="4.01577" r="1.38418" fill="white"/>
<circle cx="50.6183" cy="4.01577" r="1.38418" fill="white"/>
<circle cx="55.0829" cy="4.01577" r="1.38418" fill="white"/>
<rect x="41.1611" y="7.33313" width="89.8726" height="21.8658" fill="#7FA772"/>
<rect x="84.2034" y="74.4303" width="36.113" height="1.88162" fill="#319D90"/>
<rect x="84.2034" y="77.8225" width="36.113" height="1.88162" fill="#319D90"/>
<rect x="84.2034" y="57.2213" width="36.113" height="2.67902" fill="#319D90"/>
<rect x="84.2034" y="62.2024" width="36.113" height="2.67902" fill="#319D90"/>
<rect x="84.2034" y="67.382" width="36.113" height="2.67902" fill="#319D90"/>
<path d="M61.5693 29.3552L70.7896 20.1349C73.1641 23.1486 77.788 28.6359 79.4827 29.3552H80.0099L93.2934 16.0718C98.5546 20.4996 108.577 29.3552 106.577 29.3552H80.0099C79.9019 29.4632 79.7214 29.4565 79.4827 29.3552H61.5693Z" fill="white"/>
<circle cx="84.2036" cy="15.6092" r="2.65672" fill="white"/>
<path d="M48.0213 15.7593L45.5991 18.1816L48.0213 20.6038" stroke="white"/>
<path d="M124.73 15.7593L127.153 18.1816L124.73 20.6038" stroke="white"/>
<rect x="41.1611" y="29.199" width="89.8726" height="23.5976" fill="#319D90"/>
<rect x="53.6987" y="56.1207" width="26.466" height="25.1342" fill="#FECA38"/>
<rect x="19.2595" y="14.5525" width="89.8726" height="84.1638" rx="4" fill="#FDF4DD"/>
<path d="M19.2595 18.5525C19.2595 16.3434 21.0504 14.5525 23.2595 14.5525H105.132C107.341 14.5525 109.132 16.3434 109.132 18.5525V21.1873H19.2595V18.5525Z" fill="#3C7477"/>
<circle cx="24.2516" cy="17.87" r="1.38418" fill="white"/>
<circle cx="28.7165" cy="17.87" r="1.38418" fill="white"/>
<circle cx="33.181" cy="17.87" r="1.38418" fill="white"/>
<rect x="19.2595" y="21.1874" width="89.8726" height="21.8658" fill="#FF9132"/>
<rect x="62.3018" y="88.2845" width="36.113" height="1.88162" fill="#F6DD74"/>
<rect x="62.3018" y="91.6768" width="36.113" height="1.88162" fill="#F6DD74"/>
<rect x="62.3018" y="71.0756" width="36.113" height="2.67902" fill="#F6DD74"/>
<rect x="62.3018" y="76.0566" width="36.113" height="2.67902" fill="#F6DD74"/>
<rect x="62.3018" y="81.2362" width="36.113" height="2.67902" fill="#F6DD74"/>
<path d="M39.6677 43.2094L48.888 33.9891C51.2625 37.0028 55.8864 42.4902 57.5811 43.2094H58.1083L71.3917 29.926C76.653 34.3538 86.6755 43.2094 84.6752 43.2094H58.1083C58.0003 43.3175 57.8198 43.3107 57.5811 43.2094H39.6677Z" fill="white"/>
<circle cx="62.302" cy="29.4635" r="2.65672" fill="white"/>
<path d="M26.1197 29.6135L23.6975 32.0358L26.1197 34.4581" stroke="white"/>
<path d="M102.829 29.6135L105.251 32.0358L102.829 34.4581" stroke="white"/>
<rect x="19.2595" y="43.0531" width="89.8726" height="23.5976" fill="#F6DD74"/>
<rect x="39.6677" y="47.4788" width="14.7483" height="14.7483" fill="#C4C4C4"/>
<rect x="56.8218" y="47.4778" width="14.7483" height="14.7483" fill="#C4C4C4"/>
<rect x="73.9751" y="47.4778" width="14.7483" height="14.7483" fill="#C4C4C4"/>
<rect x="31.7969" y="69.975" width="26.466" height="25.1342" fill="#FECA38"/>
<rect x="0.105957" y="31.8799" width="89.8726" height="84.1638" rx="4" fill="#FDF4DD"/>
<path d="M0.105957 35.8799C0.105957 33.6707 1.89682 31.8799 4.10596 31.8799H85.9785C88.1877 31.8799 89.9785 33.6707 89.9785 35.8799V38.5147H0.105957V35.8799Z" fill="#3C7477"/>
<circle cx="5.09804" cy="35.1974" r="1.38418" fill="white"/>
<circle cx="9.56313" cy="35.1974" r="1.38418" fill="white"/>
<circle cx="14.0277" cy="35.1974" r="1.38418" fill="white"/>
<rect x="0.105957" y="38.5149" width="89.8726" height="21.8658" fill="#FECA38"/>
<rect x="43.1482" y="105.612" width="36.113" height="1.88162" fill="#319D90"/>
<rect x="43.1482" y="109.004" width="36.113" height="1.88162" fill="#319D90"/>
<rect x="43.1482" y="88.403" width="36.113" height="2.67902" fill="#319D90"/>
<rect x="43.1482" y="93.3842" width="36.113" height="2.67902" fill="#319D90"/>
<rect x="43.1482" y="98.5636" width="36.113" height="2.67902" fill="#319D90"/>
<path d="M20.5142 60.537L29.7345 51.3166C32.1089 54.3304 36.7329 59.8177 38.4276 60.537H38.9548L52.2382 47.2535C57.4995 51.6813 67.5219 60.537 65.5216 60.537H38.9548C38.8468 60.645 38.6662 60.6382 38.4276 60.537H20.5142Z" fill="white"/>
<circle cx="43.1484" cy="46.791" r="2.65672" fill="white"/>
<path d="M6.96615 46.9409L4.54395 49.3632L6.96615 51.7854" stroke="white"/>
<path d="M83.6752 46.9409L86.0974 49.3632L83.6752 51.7854" stroke="white"/>
<rect x="0.105957" y="60.3806" width="89.8726" height="23.5976" fill="#319D90"/>
<rect x="20.5142" y="64.8063" width="14.7483" height="14.7483" fill="white"/>
<rect x="37.6682" y="64.8053" width="14.7483" height="14.7483" fill="white"/>
<rect x="54.8218" y="64.8053" width="14.7483" height="14.7483" fill="white"/>
<rect x="12.6436" y="87.3025" width="26.466" height="25.1342" fill="#FECA38"/>
</svg>
