<svg width="554" height="381" viewBox="0 0 554 381" fill="none" xmlns="http://www.w3.org/2000/svg">
<g clip-path="url(#clip0)">
<path d="M4.14087 160.068L-161.844 -109.455L-182.892 104.452L4.14087 160.068Z" fill="#3EAE96"/>
<path d="M-103.425 271.873L4.11958 160.046L-183.22 103.777L-103.425 271.873Z" fill="#45A18C"/>
<path d="M-104.719 272.262L4.11372 160.008L-41.0031 324.407L-104.719 272.262Z" fill="#4F8F7F"/>
<path d="M28.8505 403.921L-40.6178 367.109V523.264L28.8505 403.921Z" fill="#5A7C63"/>
<path d="M57.8904 310.162L28.857 403.938L-41.2115 367.703L57.8904 310.162Z" fill="#678664"/>
<path d="M57.944 310.109L-41.168 324.27L-41.1679 367.685L57.944 310.109Z" fill="#58886C"/>
<path d="M58.0665 310.338L4.05578 160.046L-41.0397 324.398L58.0665 310.338Z" fill="#619974"/>
<path d="M129.193 25.1113L4.16216 160.11L-162.336 -110.263L129.193 25.1113Z" fill="#5AB58A"/>
<path d="M129.282 25.3302L-4.36192 -159.667L-60.2794 -62.1598L129.282 25.3302Z" fill="#53BD97"/>
<path d="M122.889 -191.493H18.3347L-4.39929 -158.95L128.775 24.8231L122.889 -191.493Z" fill="#60B188"/>
<path d="M122.068 240.641L129.193 25.1113L4.14087 160.089L122.068 240.641Z" fill="#7FA772"/>
<path d="M122.068 240.641L4.0343 160.004L57.9439 310.109L122.068 240.641Z" fill="#82A066"/>
<path d="M169.739 366.467L122.069 240.641L57.9198 310.133L169.739 366.467Z" fill="#9BA35A"/>
<path d="M28.7979 404.115L169.739 366.467L57.8318 310.074L28.7979 404.115Z" fill="#80915B"/>
<path d="M77.599 528.081L169.568 366.515L28.7979 404.056L77.599 528.081Z" fill="#8E9351"/>
<path d="M159.474 522.67L169.538 366.518L76.9437 529.202L159.474 522.67Z" fill="#B4A443"/>
<path d="M275.912 462.054L169.588 366.467L157.693 523.265L275.912 462.054Z" fill="#DAB137"/>
<path d="M299.64 271.324L169.639 366.467L275.849 462.108L299.64 271.324Z" fill="#EBB435"/>
<path d="M449.316 391.583L299.599 271.516L275.812 462.103L449.316 391.583Z" fill="#FFB731"/>
<path d="M299.598 271.516L121.947 240.727L169.639 366.518L299.598 271.516Z" fill="#C1A746"/>
<path d="M234.286 156.329L121.475 240.641L301.38 272.11L234.286 156.329Z" fill="#D5A53F"/>
<path d="M235.474 157.517L128.73 23.247L121.475 240.641L235.474 157.517Z" fill="#A5A75E"/>
<path d="M292.579 60.1942L130.381 25.7051L235.474 158.11L292.579 60.1942Z" fill="#C09B4D"/>
<path d="M354.778 158.692L292.579 60.1943L234.909 158.985L354.778 158.692Z" fill="#E09436"/>
<path d="M301.38 272.703L354.817 158.704H235.474L301.38 272.703Z" fill="#E59C33"/>
<path d="M305.536 -118.575L292.474 60.1423L128.6 25.705L305.536 -118.575Z" fill="#B69C52"/>
<path d="M284.251 -191.073L304.84 -117.909L128.634 25.8327L122.793 -191.073L284.251 -191.073Z" fill="#8E9260"/>
<path d="M423.096 61.4681L305.414 -117.43L292.49 60.0601L423.096 61.4681Z" fill="#C3954A"/>
<path d="M354.833 158.856L422.655 61.2247L292.355 60.105L354.833 158.856Z" fill="#F0872C"/>
<path d="M448.843 235.69L354.887 158.692L299.857 271.83L448.843 235.69Z" fill="#F7992F"/>
<path d="M448.878 235.709L423.637 59.7161L354.942 158.692L448.878 235.709Z" fill="#F98B2A"/>
<path d="M449.116 391.583C449.583 339.46 449.804 237.164 448.684 235.67L299.785 271.758L449.116 391.583Z" fill="#FEA231"/>
<path d="M557.491 382.597L448.8 235.553L449.117 391.583L557.491 382.597Z" fill="#FAA035"/>
<path d="M606.614 310.375L448.722 235.515L557.602 382.725L606.614 310.375Z" fill="#FF9132"/>
<path d="M566.471 157.272L423.471 61.3877L448.8 235.786L566.471 157.272Z" fill="#FD8225"/>
<path d="M606.613 310.841L566.471 156.339L448.956 235.592L606.613 310.841Z" fill="#FF7719"/>
<path d="M621.086 16.9619L422.704 61.1164L567.352 158.037L621.086 16.9619Z" fill="#FF7328"/>
<path d="M304.936 -118.005L621.164 16.962L422.899 61.0615L304.936 -118.005Z" fill="#FD8225"/>
<path d="M621.346 17.1039L457.2 -138.881L304.936 -117.813L621.346 17.1039Z" fill="#FF7626"/>
<path d="M621.053 16.8381L696.418 -191.073L456.131 -139.044L621.053 16.8381Z" fill="#FE6E26"/>
<rect x="-781" y="0.0786133" width="1900" height="380.763" fill="black" fill-opacity="0.3"/>
</g>
<defs>
<clipPath id="clip0">
<rect width="1906" height="381" fill="white" transform="translate(-784)"/>
</clipPath>
</defs>
</svg>
