<svg width="1899" height="766" viewBox="0 0 1899 766" fill="none" xmlns="http://www.w3.org/2000/svg">
<path d="M0.469238 355.624L108.923 204.611L204.098 350.442L0.469238 384.494V355.624Z" fill="#2B7C79"/>
<path d="M180.488 494.793L202.622 349.702L0.541817 384.406L0.240845 406.447L180.488 494.793Z" fill="#2B646B"/>
<path d="M0.301147 508.376L180.519 494.142L0.301152 406.326L0.301147 508.376Z" fill="#316572"/>
<path d="M0.594792 101.818L109.278 207.006L0.594727 355.539L0.594792 101.818Z" fill="#319D90"/>
<path d="M234.252 100.391L106.863 202.16L202.858 352.391L234.252 100.391Z" fill="#25726A"/>
<path d="M89.3085 1.01416L0 101.602L109.881 208.823L89.3085 1.01416Z" fill="#2DA897"/>
<path d="M78.4857 614.084L181.122 492.93L0.179932 508.376V552.819L78.4857 614.084Z" fill="#294F62"/>
<path d="M0 706.161L79.14 614.109L0 552.295V706.161Z" fill="#284C5C"/>
<path d="M87.0841 765.553L77.8828 615.296L0.361206 705.772V765.553H87.0841Z" fill="#254659"/>
<path d="M181.123 491.719L77.7559 614.713L86.939 764.921L224.592 658.911L181.123 491.719Z" fill="#244056"/>
<path d="M383.182 765.311L224.541 658.793L86.422 765.311L383.182 765.311Z" fill="#1C3B4D"/>
<path d="M277.722 497.17L181.123 492.324L224.601 659.095L277.722 497.17Z" fill="#214151"/>
<path d="M383.377 617.113L277.351 497.678L224.661 658.914L383.377 765.527V617.113Z" fill="#234457"/>
<path d="M276.467 497.552L202.033 350.721L180.676 492.607L276.467 497.552Z" fill="#27515D"/>
<path d="M235.46 99.7848L89.1821 0L108.674 207.612L235.46 99.7848Z" fill="#28897E"/>
<path d="M0.342076 101.438L91.2041 0.507324H0.342041L0.342076 101.438Z" fill="#33C9AC"/>
<path d="M252.329 294.803L234.31 99.9585L202.791 352.369L252.329 294.803Z" fill="#27515D"/>
<path d="M234.005 100.043L231.838 1.04444L90.825 1.04443L234.005 100.043Z" fill="#21998B"/>
<path d="M349.821 203.948L234.252 99.7852L257.195 349.968L349.821 203.948Z" fill="#26736B"/>
<path d="M252.203 294.676L202.538 351.735L277.722 500.805L252.203 294.676Z" fill="#2B646B"/>
<path d="M480.58 388.132L257.798 348.757L277.098 497.805L480.58 388.132Z" fill="#326673"/>
<path d="M481.184 389.949L349.257 201.48L257.384 348.945L481.184 389.949Z" fill="#2C7C79"/>
<path d="M348.676 203.144L364.169 1.01465L233.247 99.9164L348.676 203.144Z" fill="#319D90"/>
<path d="M363.79 1.26812L231.604 0.507324L233.626 100.17L363.79 1.26812Z" fill="#33BDA4"/>
<path d="M465.141 126.924L364.043 1.01465L348.504 203.015L465.141 126.924Z" fill="#36B49C"/>
<path d="M480.685 389.647L464.636 127.431L348.504 202.757L480.685 389.647Z" fill="#33998E"/>
<path d="M508.301 514.957L479.714 388.573L276.214 498.059L508.301 514.957Z" fill="#294F62"/>
<path d="M508.906 514.553L277.301 497.865L383.248 617.765L508.906 514.553Z" fill="#294F62"/>
<path d="M617.773 628.843L508.29 514.869L382.632 617.463L617.773 628.843Z" fill="#2F5667"/>
<path d="M519.377 763.004L617.932 628.89L383.248 616.529L514.379 765.613L519.377 763.004Z" fill="#284C5C"/>
<path d="M740.966 713.924L617.893 628.843L514.379 765.372H535.924L740.966 713.924Z" fill="#375E6D"/>
<path d="M383.302 616.343V765.493H514.62L383.302 616.343Z" fill="#254659"/>
<path d="M679.529 463.255L508.18 514.958L617.592 628.903L679.529 463.255Z" fill="#3C7477"/>
<path d="M680.145 464.491L479.339 387.237L508.301 515.078L680.145 464.491Z" fill="#357880"/>
<path d="M479.339 387.855L598.818 295.777L680.145 464.491L479.339 387.855Z" fill="#3A948A"/>
<path d="M598.837 295.767L464.256 126.924L480.571 387.855L598.837 295.767Z" fill="#319D90"/>
<path d="M620.396 80.6894L364.169 1.26807L599.135 296.267L620.396 80.6894Z" fill="#48B797"/>
<path d="M620.396 0.380369V81.9254L364.296 1.58032L620.396 0.380369Z" fill="#3EAE96"/>
<path d="M785.504 352.068L620.074 82.5449L599.096 296.452L785.504 352.068Z" fill="#3EAE96"/>
<path d="M678.298 463.873L785.482 352.046L598.769 295.777L678.298 463.873Z" fill="#45A18C"/>
<path d="M677.008 464.262L785.476 352.008L740.511 516.407L677.008 464.262Z" fill="#4F8F7F"/>
<path d="M617.377 629.135L678.298 465.109L740.511 516.407L617.377 629.135Z" fill="#4F8D78"/>
<path d="M740.511 558.433V516.407L617.632 629.007L740.511 558.433Z" fill="#4B7871"/>
<path d="M741.127 714.179V557.953L617.824 628.943L741.127 714.179Z" fill="#466D68"/>
<path d="M727.284 765.432L740.303 713.483L536.045 765.432H727.284Z" fill="#284C5C"/>
<path d="M752.897 765.357L740.426 712.921L726.009 765.357H752.897Z" fill="#3E5755"/>
<path d="M810.13 595.921L740.895 559.109V715.264L810.13 595.921Z" fill="#5A7C63"/>
<path d="M859.246 720.608L810.078 595.878L741.486 714.076L859.246 720.608Z" fill="#708059"/>
<path d="M848.003 765.413L859.246 718.826L740.57 714.006L752.73 765.413H848.003Z" fill="#677554"/>
<path d="M839.073 502.162L810.137 595.937L740.303 559.703L839.073 502.162Z" fill="#678664"/>
<path d="M839.127 502.109L740.346 516.27L740.346 559.685L839.127 502.109Z" fill="#58886C"/>
<path d="M839.249 502.338L785.419 352.046L740.474 516.398L839.249 502.338Z" fill="#619974"/>
<path d="M910.138 217.111L785.525 352.11L619.584 81.7373L910.138 217.111Z" fill="#5AB58A"/>
<path d="M777.156 32.7138L759.337 0.507324H620.176V82.1646L721.551 129.587L777.156 32.7138Z" fill="#42C5A6"/>
<path d="M910.226 217.33L777.029 32.333L721.299 129.84L910.226 217.33Z" fill="#53BD97"/>
<path d="M777.584 33.6439L799.776 0.633789H759.211L777.584 33.6439Z" fill="#49BA9A"/>
<path d="M903.854 0.507324H799.65L776.992 33.0504L909.721 216.823L903.854 0.507324Z" fill="#60B188"/>
<path d="M903.037 432.641L910.138 217.111L785.504 352.089L903.037 432.641Z" fill="#7FA772"/>
<path d="M903.036 432.641L785.397 352.004L839.127 502.109L903.036 432.641Z" fill="#82A066"/>
<path d="M950.548 558.467L903.037 432.641L839.103 502.133L950.548 558.467Z" fill="#9BA35A"/>
<path d="M810.078 596.115L950.548 558.467L839.015 502.074L810.078 596.115Z" fill="#80915B"/>
<path d="M858.716 720.081L950.377 558.515L810.078 596.056L858.716 720.081Z" fill="#8E9351"/>
<path d="M940.317 714.67L950.347 558.518L858.063 721.202L940.317 714.67Z" fill="#B4A443"/>
<path d="M965.283 765.212L938.542 714.076L858.283 721.238L847.759 765.212H965.283Z" fill="#747B4E"/>
<path d="M1056.37 653.902L938.542 714.67L965.414 765.409H1078.02L1056.37 653.902Z" fill="#EBBD33"/>
<path d="M1056.37 654.054L950.397 558.467L938.542 715.265L1056.37 654.054Z" fill="#DAB137"/>
<path d="M1080.01 463.324L950.447 558.467L1056.3 654.108L1080.01 463.324Z" fill="#EBB435"/>
<path d="M1215.44 731.994L1056.32 653.952L1078.15 765.542H1191.8L1215.44 731.994Z" fill="#FECA38"/>
<path d="M1229.19 583.583L1079.97 463.516L1056.27 654.104L1229.19 583.583Z" fill="#FFB731"/>
<path d="M1215.39 732.145L1229.1 583.452L1056.47 654.053L1215.39 732.145Z" fill="#FCBC38"/>
<path d="M1079.97 463.516L902.916 432.727L950.447 558.518L1079.97 463.516Z" fill="#C1A746"/>
<path d="M1014.88 348.329L902.445 432.641L1081.75 464.11L1014.88 348.329Z" fill="#D5A53F"/>
<path d="M1016.06 349.517L909.676 215.247L902.445 432.641L1016.06 349.517Z" fill="#A5A75E"/>
<path d="M1072.98 252.194L911.321 217.705L1016.06 350.11L1072.98 252.194Z" fill="#C09B4D"/>
<path d="M1134.97 350.692L1072.98 252.194L1015.5 350.985L1134.97 350.692Z" fill="#E09436"/>
<path d="M1081.75 464.703L1135.01 350.704H1016.06L1081.75 464.703Z" fill="#E59C33"/>
<path d="M1085.89 73.4248L1072.87 252.142L909.546 217.705L1085.89 73.4248Z" fill="#B69C52"/>
<path d="M1064.68 0.927734L1085.2 74.0913L909.581 217.833L903.759 0.927736L1064.68 0.927734Z" fill="#8E9260"/>
<path d="M1203.06 253.468L1085.77 74.5698L1072.89 252.06L1203.06 253.468Z" fill="#C3954A"/>
<path d="M1135.02 350.856L1202.62 253.225L1072.75 252.105L1135.02 350.856Z" fill="#F0872C"/>
<path d="M1228.72 427.69L1135.08 350.692L1080.23 463.83L1228.72 427.69Z" fill="#F7992F"/>
<path d="M1228.75 427.709L1203.6 251.716L1135.13 350.692L1228.75 427.709Z" fill="#F98B2A"/>
<path d="M1228.99 583.583C1229.46 531.46 1229.68 429.164 1228.56 427.67L1080.16 463.758L1228.99 583.583Z" fill="#FEA231"/>
<path d="M1337 574.597L1228.67 427.553L1228.99 583.583L1337 574.597Z" fill="#FAA035"/>
<path d="M1351.95 683.634L1337.23 574.539L1228.59 583.583L1351.95 683.634Z" fill="#FFA535"/>
<path d="M1215.23 732.962C1259.89 716.002 1350.34 683.508 1352.2 683.508L1228.89 583.683L1215.23 732.962Z" fill="#FEB03A"/>
<path d="M1215.23 732.028L1351.82 683.445L1345.57 765.542H1242.58L1215.23 732.028Z" fill="#FEBA3B"/>
<path d="M1191.54 765.542L1215.23 732.028L1242.71 765.542H1191.54Z" fill="#FFC43B"/>
<path d="M1400.43 765.282L1351.76 683.697L1345.31 765.282H1400.43Z" fill="#FFAC32"/>
<path d="M1383.63 501.908L1337.17 574.655L1351.76 683.759L1499.47 501.908H1383.63Z" fill="#FF8932"/>
<path d="M1385.96 502.375L1228.6 427.515L1337.11 574.725L1385.96 502.375Z" fill="#FF9132"/>
<path d="M1345.95 349.272L1203.43 253.388L1228.68 427.786L1345.95 349.272Z" fill="#FD8225"/>
<path d="M1385.96 502.841L1345.95 348.339L1228.83 427.592L1385.96 502.841Z" fill="#FF7719"/>
<path d="M1512.5 316.131L1345.49 349.272L1385.03 501.908L1512.5 316.131Z" fill="#FF732B"/>
<path d="M1400.38 208.962L1202.67 253.116L1346.83 350.037L1400.38 208.962Z" fill="#FF7328"/>
<path d="M1512.5 316.598L1400.38 209.079L1346.88 349.272L1512.5 316.598Z" fill="#FF6C27"/>
<path d="M1601.85 446.64L1511.1 315.198L1384.91 501.832L1601.85 446.64Z" fill="#FF6029"/>
<path d="M1554.83 557.921L1600.92 446.837L1384.09 502.009L1497.61 502.841L1554.83 557.921Z" fill="#FE642E"/>
<path d="M1499.22 699.787L1555.95 556.885L1498.24 503.349L1351.63 683.885L1499.22 699.787Z" fill="#FF7E2F"/>
<path d="M1500.41 699.817L1351.79 683.821L1400.5 765.471H1484.88L1500.41 699.817Z" fill="#FF9334"/>
<path d="M1581.66 765.345L1499.38 699.301L1484.69 765.345H1581.66Z" fill="#F97F2C"/>
<path d="M1720.01 663.697L1554.93 557.402L1498.87 699.817L1581.6 765.597H1617.56L1720.01 663.697Z" fill="#F65E2F"/>
<path d="M1697.38 765.596L1720.67 663.08L1617.37 765.596L1697.38 765.596Z" fill="#ED5629"/>
<path d="M1797.49 729.02L1720.01 664.213L1696.61 765.411H1756.64L1797.49 729.02Z" fill="#ED4F2A"/>
<path d="M1661.38 517.67L1555.95 558.434L1720.2 664.179L1661.38 517.67Z" fill="#FC4D32"/>
<path d="M1663.44 519.218L1600.81 446.95L1554.15 559.232L1663.44 519.218Z" fill="#FF6029"/>
<path d="M1567.78 204.976L1511.1 315.446L1601.21 445.946L1652.64 323.139L1567.78 204.976Z" fill="#FE522E"/>
<path d="M1800.23 452.138L1651.09 321.591L1600.7 446.978L1662.92 518.702L1800.23 452.138Z" fill="#FC4A30"/>
<path d="M1899.62 359.276L1650.06 323.139L1799.2 452.138L1899.62 359.276Z" fill="#EF462D"/>
<path d="M1720.01 664.212L1799.6 452.442L1661.38 517.669L1720.01 664.212Z" fill="#EF462D"/>
<path d="M1849.6 612.097L1799.52 452.455L1739.77 612.097H1849.6Z" fill="#F04C2D"/>
<path d="M1868.63 665.245L1849.08 611.997H1739.84L1718.98 665.245L1797.2 728.925L1868.63 665.245Z" fill="#FA4B30"/>
<path d="M1900 557.917L1849.03 612.188L1866.57 666.793L1899.52 646.089L1900 557.917Z" fill="#D34A25"/>
<path d="M1899.52 358.989L1799.23 452.101L1849.51 612.189L1899.52 558.273V358.989Z" fill="#C53F1B"/>
<path d="M1885.78 765.123L1866.5 666.39L1899.62 645.993V765.123H1885.78Z" fill="#C53F1B"/>
<path d="M1756.16 765.348L1866.97 666.487L1885.87 765.348H1756.16Z" fill="#D94C28"/>
<path d="M1796.57 233.147L1565.72 206.524L1652.64 325.719L1796.57 233.147Z" fill="#FB4E2C"/>
<path d="M1899.33 218.12L1795.6 233.356L1654.18 324.687L1899.33 359.468V218.12Z" fill="#E94F25"/>
<path d="M1085.29 73.9951L1400.46 208.962L1202.86 253.061L1085.29 73.9951Z" fill="#FD8225"/>
<path d="M1568.24 207.986L1400.27 209.104L1511.21 315.399L1568.24 207.986Z" fill="#FF642B"/>
<path d="M1237.43 53.2145L1140.08 0.640137H1064.58L1085.2 74.2826L1237.43 53.2145Z" fill="#E07D30"/>
<path d="M1400.64 209.104L1237.05 53.1187L1085.29 74.1867L1400.64 209.104Z" fill="#FF7626"/>
<path d="M1475.66 0.927734L1236.59 52.7575L1139.41 0.927734H1475.66Z" fill="#FF7626"/>
<path d="M1400.35 208.838L1475.46 0.927734L1235.98 52.9563L1400.35 208.838Z" fill="#FE6E26"/>
<path d="M1530.44 0.831543H1475.56L1400.23 209.117L1566.75 208.072L1530.44 0.831543Z" fill="#F96324"/>
<path d="M1566.69 208.412L1669.21 0.92761L1529.96 0.353027L1566.69 208.412Z" fill="#F75729"/>
<path d="M1797.15 233.872L1669.21 1.02344L1566.76 208.128L1797.15 233.872Z" fill="#E94F25"/>
<path d="M1899.48 156.448L1668.83 0.640137L1796.82 233.563L1899.48 217.876V156.448Z" fill="#D34A25"/>
<path d="M1899.62 0.73584H1669.12L1899.62 157.023V0.73584Z" fill="#C53F1B"/>
</svg>
