<svg width="479" height="293" viewBox="0 0 479 293" fill="none" xmlns="http://www.w3.org/2000/svg">
<path d="M195.572 53.699C201.254 55.9609 205.184 60.8148 205.237 65.6391C205.249 66.75 205.088 67.913 205.713 68.9436C206.379 70.0368 207.88 70.8863 207.995 72.068C208.113 73.3256 206.559 74.4458 207.091 75.6568C207.633 76.8918 209.974 77.276 210.479 78.5174C211.042 79.8923 208.909 81.1412 209.4 82.5291C209.844 83.793 211.984 84.1159 213.27 84.9965C214.462 85.8107 214.879 87.1426 214.644 88.3089C214.408 89.4751 213.613 90.503 212.719 91.4324C207.432 96.9413 198.314 99.7903 189.189 99.7316C180.065 99.6698 170.987 96.9291 163.178 92.8942C161.322 91.9328 159.461 90.8453 158.382 89.335C157.306 87.8262 157.24 85.7922 158.778 84.6766C159.355 84.2582 160.121 83.9867 160.574 83.4838C162.17 81.707 158.723 79.0764 159.711 77.0332C160.245 75.9279 161.859 75.4637 163.252 74.993C164.648 74.5217 166.142 73.7015 166.043 72.496C165.993 71.9028 165.548 71.3439 165.483 70.7504C165.318 69.211 167.539 68.4076 169.031 67.4608C171.687 65.7714 172.391 62.8868 173.349 60.2946C175.997 53.1471 186.572 50.1168 195.572 53.699Z" fill="#96432A"/>
<path d="M194.903 56.2856C200.262 58.417 203.968 62.9959 204.018 67.5454C204.029 68.5948 203.877 69.6911 204.467 70.6629C205.094 71.6935 206.51 72.4951 206.616 73.61C206.729 74.7953 205.263 75.8527 205.764 76.9953C206.274 78.1597 208.482 78.5218 208.96 79.6923C209.489 80.9893 207.478 82.1667 207.94 83.4761C208.36 84.6688 210.377 84.9732 211.593 85.8034C212.715 86.5713 213.11 87.828 212.886 88.9268C212.663 90.0278 211.912 90.9969 211.07 91.8736C206.082 97.0703 197.479 99.7614 188.869 99.706C180.259 99.6494 171.699 97.0654 164.333 93.2604C162.581 92.3562 160.826 91.3301 159.808 89.9064C158.792 88.4842 158.73 86.5642 160.181 85.5115C160.728 85.1167 161.449 84.8612 161.876 84.3855C163.382 82.71 160.131 80.2293 161.064 78.3023C161.57 77.2597 163.091 76.8218 164.407 76.3771C165.721 75.9319 167.132 75.1582 167.038 74.0206C166.991 73.4606 166.571 72.9346 166.512 72.3746C166.357 70.9225 168.453 70.1657 169.858 69.2716C172.364 67.6776 173.029 64.9559 173.935 62.5108C176.436 55.7683 186.412 52.9076 194.903 56.2856Z" fill="#6C301E"/>
<path d="M476.427 275.957H464.186C465.944 271.139 484.956 215.731 452.662 194.375C418.87 172.107 360.793 146.259 365.285 91.1765C369.778 36.0289 285.852 -1.40902 226.472 80.0428C167.092 161.495 138.639 87.3351 71.6417 98.2083C4.9697 109.016 5.88123 198.477 39.3475 275.957H11.9364C10.504 275.957 9.33203 277.129 9.33203 278.561C9.33203 279.994 10.504 281.166 11.9364 281.166H476.362C477.794 281.166 478.966 279.994 478.966 278.561C479.031 277.129 477.859 275.957 476.427 275.957Z" fill="#E1E1E1"/>
<path d="M294.863 108.084L290.045 107.498C290.045 107.498 282.362 121.236 277.023 138.815L272.856 151.382C272.856 151.382 273.377 156.655 280.149 157.632C286.92 158.544 294.017 137.709 294.017 137.709L294.863 108.084Z" fill="#FD8225"/>
<path d="M279.498 136.862C279.498 136.862 284.707 140.704 286.465 148.973C287.311 152.944 286.66 155.093 285.879 155.679C284.837 157.111 282.102 159.455 280.995 157.111C279.238 154.963 279.498 136.862 279.498 136.862Z" fill="white"/>
<path d="M338.421 279.517L360.688 258.356L348.643 248.98L342.523 256.728L343.89 258.812C343.89 258.812 343.89 258.812 343.89 258.877C343.63 259.268 341.611 262.263 339.788 265.909C337.184 270.987 334.905 277.433 338.421 279.517Z" fill="#375C78"/>
<path d="M360.391 257.985L338.094 279.228L340.115 281.35L362.412 260.106L360.391 257.985Z" fill="white"/>
<path d="M339.789 265.844L343.696 267.927C345.323 268.774 347.342 268.188 348.188 266.56L348.904 265.258C349.751 263.63 349.165 261.612 347.537 260.765L343.826 258.747C343.631 259.138 341.612 262.198 339.789 265.844Z" fill="#457490"/>
<path d="M294.864 220.072C292.52 216.556 289.72 173.323 288.157 166.292C288.027 165.575 299.812 161.799 299.812 161.799L311.987 167.854L312.248 212.324L351.574 246.767L340.57 258.942C340.57 258.942 340.57 258.942 334.711 253.799C321.363 242.144 296.687 222.741 294.864 220.072Z" fill="#16333C"/>
<path d="M351.574 246.767L348.644 243.121L336.599 256.533L340.57 258.942L351.574 246.767Z" fill="#16333C"/>
<path d="M262.634 286.158H293.366L291.152 271.118L281.385 272.485L280.93 274.894C280.93 274.894 280.93 274.894 280.865 274.894C280.409 275.024 276.893 275.806 273.051 277.173C267.647 279.126 261.527 282.251 262.634 286.158Z" fill="#375C78"/>
<path d="M293.366 285.702H262.569V288.632H293.366V285.702Z" fill="white"/>
<path d="M273.052 277.173L274.419 281.405C275.005 283.163 276.893 284.074 278.586 283.554L280.018 283.098C281.776 282.512 282.688 280.624 282.167 278.866L280.865 274.894C280.474 274.959 276.893 275.806 273.052 277.173Z" fill="#457490"/>
<path d="M329.111 176.253C329.111 176.253 333.668 188.234 318.758 205.227C314.721 210.501 305.346 224.239 305.346 224.239L293.952 273.592L277.739 272.876C277.739 272.876 288.417 221.7 289.589 219.226C306.843 187.192 310.424 178.011 310.424 178.011L329.111 176.253Z" fill="#214854"/>
<path d="M277.675 272.941V268.318L295.45 269.685L293.887 273.657L277.675 272.941Z" fill="#16333C"/>
<path d="M329.827 152.749C329.827 153.335 329.762 157.176 329.762 157.632C330.153 164.599 331.78 174.04 331.78 174.04C331.78 181.983 308.992 182.569 303.067 181.332C283.99 179.704 286.79 171.305 286.79 171.305C286.985 170.459 287.18 169.352 287.376 168.05C289.068 157.958 291.868 136.016 291.803 134.714C291.803 134.128 291.738 133.607 291.738 133.086C292.194 131.719 289.003 107.563 289.915 107.498C289.915 107.498 294.147 102.875 300.463 99.0989C301.114 98.7082 301.765 98.3175 302.481 97.992C302.676 97.9269 302.807 97.7967 303.002 97.7316C303.458 97.5362 303.848 97.2758 304.304 97.0805C307.299 95.6481 310.685 94.6063 314.136 94.2808C317.131 94.8667 320.061 95.9736 322.86 97.2758C323.707 97.6664 324.553 98.1222 325.4 98.578C325.725 98.7733 326.051 98.9035 326.311 99.0989C326.832 99.3593 327.288 99.6848 327.743 99.9453C336.338 105.219 340.57 113.488 340.57 113.488L339.593 114.855C338.942 116.092 333.668 128.659 331.52 134.323C331.324 135.169 331.129 136.146 330.934 137.058C330.869 137.448 330.804 137.839 330.738 138.23C330.738 138.23 330.738 138.295 330.738 138.36C330.218 142.722 329.957 147.801 329.827 152.749Z" fill="#FD8225"/>
<path d="M323.642 97.9268C323.642 97.9268 319.214 104.893 309.318 109.06C303.783 103.396 304.369 97.0152 304.369 97.0152L306.844 86.2722L315.178 88.2906L323.512 79.5659V80.0868L323.577 88.3557L323.642 97.9268Z" fill="#FFC9B9"/>
<path d="M328.199 90.9601C326.116 89.7882 323.576 89.9184 323.576 89.9184V95.1922C319.279 102.354 309.317 109.061 309.317 109.061C318.368 108.995 326.767 103.982 329.371 100.987C329.371 100.987 330.543 101.768 332.757 103.656C336.142 103.461 335.817 94.7365 328.199 90.9601Z" fill="white"/>
<path d="M304.565 96.4945C304.565 96.4945 303.979 102.289 309.383 108.995C309.383 108.995 302.872 104.373 301.831 99.4244C300.789 94.411 305.477 93.4343 305.477 93.4343L304.565 96.4945Z" fill="white"/>
<path opacity="0.5" d="M323.642 88.4208C314.462 94.8666 309.774 96.4943 305.086 95.2572L308.146 90.0485L308.602 87.7697L317.131 88.8114L323.577 80.1519L323.642 88.4208Z" fill="#FFAB90"/>
<path d="M310.164 56.9078C310.164 56.9078 320.581 54.6289 325.595 67.2602C325.595 67.2602 328.59 75.3988 324.943 83.0817C324.943 83.0817 317.391 93.1737 308.861 95.7781C302.871 97.4058 297.142 86.6628 297.467 75.9197C297.793 65.6975 303.392 57.5589 310.164 56.9078Z" fill="#FFC9B9"/>
<path d="M311.466 85.4258C311.466 85.4258 311.01 87.0535 309.773 88.2255C309.643 88.3557 309.513 88.4208 309.382 88.551C308.862 88.9417 308.21 89.2672 307.364 89.3975C306.387 89.5277 305.606 89.2672 304.89 88.8115C304.76 88.7464 304.629 88.6161 304.499 88.551C303.262 87.6395 302.546 86.4024 302.546 86.4024C302.546 86.4024 306.843 87.2488 311.466 85.4258Z" fill="white"/>
<path d="M324.358 78.8496L324.228 83.6677C328.264 85.2954 331.715 81.3888 332.431 78.1334C332.822 76.5056 332.431 75.0081 331.129 74.4872C328.329 73.3804 326.116 75.9848 325.074 77.6776C324.618 78.3287 324.358 78.8496 324.358 78.8496Z" fill="#FFC9B9"/>
<path d="M317.977 55.3453C329.111 56.1917 326.506 61.0749 326.506 61.0749C326.506 61.0749 333.147 59.0565 328.785 74.3572C326.246 75.4641 325.139 77.0918 324.813 77.7429C324.488 79.7613 323.902 82.1052 322.86 84.5143C322.86 84.5143 322.209 80.6728 322.469 75.8547C317.456 73.8363 317 69.2136 317 69.2136C307.95 73.5759 296.1 73.9014 292.975 72.0784C292.454 71.7528 299.811 55.0197 317.977 55.3453Z" fill="#3B1411"/>
<path d="M329.762 77.222C326.897 77.0918 325.205 79.5659 325.139 79.6962C325.074 79.8264 325.074 79.9566 325.205 80.0217C325.27 80.0217 325.27 80.0868 325.335 80.0868C325.4 80.0868 325.465 80.0217 325.53 79.9566C325.53 79.9566 326.181 78.98 327.288 78.3289C328.265 78.98 327.679 80.6728 327.679 80.6728C327.614 80.803 327.679 80.9332 327.809 80.9983H327.874C328.004 80.9983 328.069 80.9332 328.134 80.8681C328.134 80.803 328.72 79.0451 327.744 78.1335C328.33 77.8731 328.916 77.6778 329.697 77.7429H329.762C329.892 77.7429 330.023 77.6778 330.023 77.5476C330.023 77.3522 329.892 77.222 329.762 77.222Z" fill="#FFBAA4"/>
<path d="M309.903 79.1752C309.903 78.6544 310.099 78.1335 310.424 77.6777C310.75 77.222 311.271 76.8964 311.922 76.8313C312.573 76.8313 313.094 77.0917 313.484 77.5475C313.875 77.9382 314.07 78.459 314.135 78.9799C313.81 78.5892 313.419 78.2637 313.094 78.0033C312.703 77.7428 312.312 77.6126 311.922 77.6126C311.531 77.6126 311.14 77.8079 310.815 78.0684C310.489 78.3939 310.229 78.7195 309.903 79.1752Z" fill="#434244"/>
<path d="M299.291 79.8264C299.291 79.3706 299.421 78.8497 299.682 78.3939C299.942 77.9382 300.398 77.5475 301.049 77.4824C301.7 77.4824 302.221 77.808 302.481 78.2637C302.807 78.6544 302.937 79.1753 302.937 79.631C302.612 79.2404 302.351 78.9148 302.026 78.6544C301.7 78.394 301.375 78.1986 301.049 78.2637C300.723 78.2637 300.398 78.4591 300.137 78.7846C299.812 79.045 299.617 79.4357 299.291 79.8264Z" fill="#434244"/>
<path d="M306.843 85.0352H306.778C306.387 85.0352 305.541 84.7747 305.346 82.6261C305.02 79.1102 305.476 77.1569 305.476 77.0918C305.476 76.9616 305.606 76.8965 305.736 76.8965C305.867 76.8965 305.932 77.0267 305.932 77.1569C305.932 77.1569 305.476 79.1102 305.802 82.561C305.932 83.9934 306.387 84.5143 306.778 84.5143C307.299 84.5143 308.08 83.5376 308.341 81.975C308.341 81.8448 308.471 81.7797 308.601 81.7797C308.731 81.7797 308.797 81.9099 308.797 82.0401C308.536 83.7981 307.755 84.97 306.843 85.0352Z" fill="#FFAB90"/>
<path d="M300.007 75.3337C300.658 74.9431 301.505 74.9431 302.481 75.2035C302.807 75.3337 303.197 75.1384 303.263 74.7478C303.393 74.4222 303.197 74.0316 302.807 73.9664C301.505 73.5758 300.333 73.6409 299.356 74.2269C297.793 75.0733 297.403 77.5475 297.728 77.6126C297.858 77.6126 298.9 75.9197 300.007 75.3337Z" fill="#3B1411"/>
<path d="M315.828 77.0267C316.219 76.8964 315.438 74.1618 313.615 73.3805C312.443 72.8597 311.14 72.9248 309.708 73.5108C309.317 73.641 309.187 74.0967 309.317 74.4223C309.448 74.8129 309.903 74.9432 310.229 74.8129C311.271 74.3572 312.182 74.2921 313.029 74.6827C314.331 75.2687 315.763 77.0918 315.828 77.0267Z" fill="#3B1411"/>
<path d="M344.738 130.351L331.13 127.877L335.101 152.488L314.006 169.807C314.006 169.807 313.941 169.807 313.811 169.807C315.503 171.5 317.001 173.388 318.303 175.407C321.493 173.649 345.649 160.432 347.212 156.265C348.904 151.837 344.738 130.351 344.738 130.351Z" fill="#FFC9B9"/>
<path d="M303.718 180.16C303.262 181.592 301.439 182.048 301.114 181.202C300.723 180.42 302.872 174.495 303.588 173.844C304.239 173.193 307.82 171.435 307.82 171.435H303.653C303.653 171.435 302.221 173.454 300.528 175.732C298.444 177.621 299.095 175.342 299.095 174.43C299.095 173.519 302.611 168.31 303.523 168.245C304.434 168.18 308.211 168.31 310.034 168.18C311.01 168.115 313.68 168.375 315.568 168.636C317.586 170.719 317.652 172.868 318.889 175.081C314.201 179.444 309.969 177.23 309.643 177.425C309.318 177.621 308.211 181.592 306.843 181.592C306.192 181.462 305.932 180.29 305.932 180.29C305.085 182.048 304.434 182.243 304.044 181.853C303.393 181.592 303.718 180.16 303.718 180.16Z" fill="#FFC9B9"/>
<path d="M332.237 113.683C332.237 113.683 334.906 102.549 341.613 114.465C344.998 123.45 350.598 150.861 347.668 157.111C340.896 157.176 334.385 152.684 334.385 152.684C334.385 152.684 332.432 143.568 330.544 134.388C330.674 132.565 331.781 120.78 331.26 117.394C334.255 113.618 330.544 116.678 332.888 113.553" fill="#FD8225"/>
<path d="M271.035 93.9549L280.541 93.7596C281.127 93.6294 281.647 94.02 281.778 94.5409L286.01 114.855C286.205 115.832 285.489 116.418 284.903 116.548L275.723 116.287C275.137 116.418 274.616 116.027 274.485 115.506L269.798 95.3222C269.667 94.8014 270.449 94.0852 271.035 93.9549Z" fill="#6D6E70"/>
<path d="M270.448 94.5409L279.954 94.3456C280.54 94.2153 281.061 94.606 281.191 95.1269L285.423 115.441C285.554 116.027 285.163 116.548 284.642 116.678L275.136 116.873C274.55 117.004 274.029 116.613 273.899 116.092L269.667 95.778C269.537 95.2571 269.927 94.6711 270.448 94.5409Z" fill="white"/>
<path d="M275.071 102.354C275.397 103.852 276.373 104.893 277.154 104.763C278.001 104.568 278.392 103.2 278.001 101.703C277.675 100.205 276.699 99.1637 275.917 99.2939C275.071 99.4893 274.68 100.857 275.071 102.354Z" fill="#CFD1D2"/>
<path d="M271.23 95.4526L273.053 95.3875C273.313 95.3875 273.574 95.5828 273.574 95.9083C273.574 96.1688 273.378 96.4292 273.053 96.4292L271.23 96.4943C270.969 96.4943 270.709 96.299 270.709 95.9734C270.709 95.713 270.904 95.4526 271.23 95.4526Z" fill="#6D6E70"/>
<path d="M268.234 120.585C268.234 120.585 266.541 110.688 266.997 108.279C267.453 105.87 272.075 101.638 272.792 100.987C273.508 100.336 278.651 98.0569 279.368 98.708C280.084 99.3591 279.368 100.401 277.935 101.182C276.503 101.964 274.484 102.94 274.354 103.07C274.224 103.201 271.489 107.042 271.489 107.042C271.489 107.042 275.396 105.61 276.308 105.414C277.154 105.219 281.646 105.024 282.037 105.479C282.428 105.935 282.298 106.847 280.8 107.042C280.8 107.042 282.428 107.107 282.884 107.498C283.274 107.758 283.925 109.321 279.498 109.321C279.498 109.321 281.712 109.126 281.777 110.037C281.842 110.949 276.959 111.209 276.959 111.209C276.959 111.209 276.568 114.595 274.029 115.636L274.615 120.194L268.234 120.585Z" fill="#FFC9B9"/>
<path d="M271.685 116.027L274.224 116.809C274.224 116.809 277.089 129.831 281.972 140.769C285.619 149.689 284.968 157.046 282.103 158.609C279.173 160.172 274.029 155.939 272.336 150.405C270.643 144.806 267.844 117.785 267.844 117.785L271.685 116.027Z" fill="#FFC9B9"/>
<path d="M290.241 146.889L291.934 134.714L290.241 116.678V126.445L287.181 123.71L290.176 129.244L290.306 134.779L290.241 146.889Z" fill="#F16F0D"/>
<path d="M340.635 153.14C338.747 152.619 335.427 151.772 334.059 150.926C332.692 150.079 332.887 151.707 333.213 152.358C333.213 152.358 331.325 153.726 331.52 154.507C331.78 155.288 335.101 158.023 339.203 159.195C343.305 160.367 346.3 160.106 346.951 159.781C347.537 159.455 346.625 157.437 347.211 157.176C347.732 156.916 348.774 156.395 348.904 155.353C349.034 154.312 343.37 153.856 340.635 153.14Z" fill="white"/>
<path d="M297.598 61.1399C306.453 61.6608 313.549 64.135 318.888 66.8044C326.376 70.6459 329.176 73.7712 329.176 73.7712C329.176 73.7712 331.064 64.0047 330.413 60.3586C328.59 55.5405 317.586 48.3134 316.219 47.9878C314.852 47.6623 304.174 50.9178 303.067 52.2199C302.025 53.5872 297.598 61.1399 297.598 61.1399Z" fill="#214854"/>
<path d="M318.498 66.6092C318.498 66.6092 296.556 66.3488 290.11 63.6142C283.665 60.9447 294.538 60.8145 297.533 61.0749C300.528 61.3354 308.146 61.2051 308.146 61.2051L318.498 66.6092Z" fill="#214854"/>
<path d="M297.598 61.1399C306.453 61.6608 313.549 64.135 318.888 66.8044C318.888 66.8044 319.735 56.6474 319.474 55.6707C319.214 54.6941 316.219 47.9878 316.219 47.9878C314.852 47.6623 304.174 50.9178 303.067 52.2199C302.025 53.5872 297.598 61.1399 297.598 61.1399Z" fill="white"/>
<path d="M108.651 287.981H76.7471L76.9424 285.247L77.7237 272.941H88.1412L88.597 275.61L96.2799 278.605C96.2799 278.605 106.242 279.582 108.325 285.181C108.586 286.028 108.716 286.939 108.651 287.981Z" fill="#434244"/>
<path d="M64.4403 286.093C64.4403 287.135 64.4403 289.023 64.4403 289.023C64.4403 289.023 52.0045 293.19 46.0795 287.981C46.0795 287.981 46.0144 287.005 46.2748 285.507C46.6655 283.424 47.7072 280.364 50.572 277.824L51.6789 271.183L61.0547 273.527V277.303C61.1198 277.303 64.4403 284.986 64.4403 286.093Z" fill="#434244"/>
<path d="M93.3499 161.539L89.248 274.634H74.5332L71.2778 187.257L63.0089 274.634L49.7266 273.397L50.7683 160.432L93.3499 161.539Z" fill="#16333C"/>
<path d="M82.6064 102.745L91.7218 104.698C91.7218 104.698 96.9305 116.939 105.004 133.542C105.004 133.542 111.906 147.345 104.939 149.754C98.3629 151.772 87.099 123.58 87.099 123.58L82.6064 102.745Z" fill="#FFC9B9"/>
<path d="M51.6799 150.275C51.6799 150.926 51.745 154.767 51.745 155.223C51.3544 162.255 49.6615 171.761 49.6615 171.761C49.6615 179.769 72.6451 180.355 78.5701 179.118C97.7774 177.425 94.9777 169.026 94.9777 169.026C94.7823 168.18 94.587 167.073 94.3917 165.771C92.6337 155.614 89.8991 133.477 89.8991 132.174C89.8991 131.588 89.9642 131.067 89.9642 130.547C89.5085 129.114 92.7639 104.828 91.7873 104.763C91.7873 104.763 87.5552 100.141 81.1094 96.299C80.4583 95.9084 79.8072 95.5177 79.091 95.1922C78.8956 95.1271 78.7654 94.9969 78.5701 94.9318C78.1143 94.7364 77.7237 94.476 77.2679 94.2807C74.2078 92.8483 70.8872 91.8065 67.3713 91.481C64.3763 92.0669 61.3812 93.1738 58.5815 94.5411C57.7351 94.9318 56.8236 95.3875 55.9771 95.8433C55.6516 96.0386 55.3261 96.1688 55.0656 96.3642C54.5447 96.6246 54.089 96.9501 53.5681 97.2106C44.9085 102.484 40.6113 110.884 40.6113 110.884C40.6113 110.884 41.588 112.251 41.6531 112.316C42.3042 113.553 47.6431 126.249 49.7917 131.914C49.9871 132.76 50.1824 133.737 50.3777 134.714C50.4428 135.104 50.508 135.495 50.5731 135.886C50.5731 135.886 50.5731 135.951 50.5731 136.016C51.2242 140.183 51.5497 145.326 51.6799 150.275Z" fill="white"/>
<path d="M81.2396 106.912C81.2396 106.912 81.8907 169.938 83.5184 183.415C83.5184 183.415 92.8942 182.829 97.3867 177.165C97.3867 177.165 90.8758 139.271 90.5502 131.328C90.2898 123.385 92.5686 104.959 92.5686 104.959C92.5686 104.959 85.1462 97.7965 77.1377 93.7598L81.2396 106.912Z" fill="#375E6D"/>
<path d="M88.9226 103.396L92.6338 104.894L105.33 124.817L90.8108 134.388L88.0762 129.179L88.9226 103.396Z" fill="#375E6D"/>
<path d="M76.9414 92.718L80.9131 106.717L86.3172 108.344L79.9364 94.7364L76.9414 92.718Z" fill="#27515D"/>
<path d="M67.892 176.123C67.7618 179.9 67.5665 182.96 67.2409 184.913C67.2409 184.913 50.8334 183.806 44.3875 179.639C44.3875 179.639 47.1221 150.405 47.8383 139.597C47.9034 138.685 47.9685 137.904 47.9685 137.318C48.3592 129.31 42.3691 108.019 42.3691 108.019C42.3691 108.019 47.7732 99.3593 57.8652 94.2808L66.069 106C66.069 105.935 68.5431 153.856 67.892 176.123Z" fill="#375E6D"/>
<path d="M57.4742 130.612C57.4742 130.612 55.7814 121.041 54.2188 117.72L56.758 122.734L57.344 119.153L58.6462 128.984L57.4742 130.612Z" fill="#27515D"/>
<path d="M90.8108 134.388L88.0762 116.353L92.6338 133.216L90.8108 134.388Z" fill="#27515D"/>
<path d="M57.7881 91.8436C57.7881 91.8436 64.5874 107.504 72.2541 106.261C77.8535 100.531 77.2024 94.1502 77.2024 94.1502L74.7283 83.342L61.9124 86.382C61.6337 90.3946 60.4032 91.048 57.7881 91.8436Z" fill="#FFC9B9"/>
<path d="M54.805 134.518C49.4009 144.415 53.047 155.158 60.73 147.996C65.4178 141.159 75.7051 117.72 76.812 114.79C75.7051 112.446 76.4213 111.405 74.5331 109.907C77.398 108.995 72.5799 108.865 72.5799 108.865L54.805 134.518Z" fill="#FFC9B9"/>
<path d="M92.6336 107.954L91.0059 107.889L76.0307 99.229C75.9005 98.9686 75.9005 98.7733 75.9656 98.5779C76.1609 98.1873 76.7469 97.9919 76.7469 97.9919L91.657 106.586L92.6336 107.954Z" fill="#6D6E70"/>
<path d="M92.6336 107.954L91.0059 107.889L76.0307 99.229C75.9005 98.9685 75.9005 98.7732 75.9656 98.5779L91.1361 107.368L92.6336 107.954Z" fill="#59595B"/>
<path d="M86.9686 105.74C88.401 106.196 88.8568 105.024 88.401 104.307C87.9452 103.526 84.6247 101.833 83.7131 102.029C82.8016 102.224 79.3508 104.177 79.3508 104.177L82.7365 100.922C82.7365 100.922 84.234 100.987 87.0988 100.792C89.5079 100.531 89.1823 99.294 88.2708 99.0335C87.5546 98.5127 82.3458 97.9267 81.3041 98.5778C80.3925 99.294 77.072 101.638 75.9 103.07C75.314 103.852 73.491 107.237 72.6445 108.93C73.2305 111.795 74.9885 113.097 76.0953 115.376C82.4109 113.944 82.9969 109.126 83.3225 109.06C83.7131 108.93 83.3225 111.99 85.5362 110.818C85.7966 110.232 85.5362 107.433 85.5362 107.433C85.5362 107.433 84.6247 110.037 86.9035 109.321C88.0103 108.67 86.9686 105.74 86.9686 105.74Z" fill="#FFC9B9"/>
<path d="M51.0289 111.535C54.5448 115.051 61.1208 146.108 61.1208 146.108C61.1208 146.108 57.9305 156.525 50.3778 151.056C45.4295 146.173 40.2207 122.147 40.2207 112.446C40.2207 112.446 42.4344 100.857 51.0289 111.535Z" fill="#FFC9B9"/>
<path d="M115.682 88.1604L102.465 88.9417C101.684 88.8115 100.967 89.3975 100.837 90.1788L97.2561 118.827C97.0608 120.194 98.1676 120.976 98.949 121.041L111.71 119.673C112.492 119.804 113.208 119.218 113.338 118.436L117.505 89.9184C117.635 89.2021 116.463 88.2906 115.682 88.1604Z" fill="#434244"/>
<path d="M116.528 88.9417L103.311 89.723C102.53 89.5928 101.813 90.1787 101.683 90.96L98.1022 119.608C97.9719 120.389 98.5579 121.106 99.3392 121.236L112.556 120.455C113.338 120.585 114.054 119.999 114.184 119.218L117.765 90.5694C117.83 89.7881 117.309 89.0719 116.528 88.9417Z" fill="#59595B"/>
<path d="M111.06 100.271C110.734 102.419 109.562 103.982 108.39 103.787C107.218 103.591 106.567 101.768 106.828 99.6196C107.153 97.4709 108.325 95.9083 109.497 96.1036C110.669 96.299 111.32 98.122 111.06 100.271Z" fill="#6D6E70"/>
<path d="M115.617 90.3089L113.077 90.4391C112.687 90.4391 112.361 90.8297 112.426 91.2204C112.426 91.6111 112.817 91.9366 113.208 91.8715L115.747 91.7413C116.138 91.7413 116.463 91.3506 116.398 90.96C116.333 90.5693 116.007 90.2438 115.617 90.3089Z" fill="#434244"/>
<path d="M121.086 117.785C121.086 117.785 122.714 112.967 121.672 108.865C121.217 106.456 116.464 102.289 115.682 101.638C114.901 100.987 109.692 98.7731 108.976 99.4242C108.26 100.075 108.976 101.117 110.474 101.898C111.971 102.68 113.924 103.656 114.12 103.721C114.25 103.852 117.115 107.628 117.115 107.628C117.115 107.628 113.143 106.261 112.232 106.065C111.385 105.87 106.828 105.74 106.437 106.196C106.046 106.651 106.176 107.563 107.674 107.758C107.674 107.758 106.046 107.823 105.59 108.279C105.2 108.605 104.549 110.167 109.041 110.037C109.041 110.037 106.828 109.907 106.762 110.753C106.697 111.665 111.646 111.86 111.646 111.86C111.646 111.86 112.101 115.246 114.706 116.222L114.185 120.845L121.086 117.785Z" fill="#FFC9B9"/>
<path d="M117.505 115.702L114.901 115.962C114.901 115.962 110.538 126.119 104.353 134.193C99.6651 140.899 100.121 147.67 102.79 149.428C105.46 151.186 110.408 148.582 112.752 143.634C115.096 139.401 121.086 117.785 121.086 117.785L117.505 115.702Z" fill="#FFC9B9"/>
<path d="M57.9299 91.3508L55 95.2574L60.5994 112.316L66.0686 105.935C66.1337 105.935 59.3623 96.82 57.9299 91.3508Z" fill="#27515D"/>
<path d="M57.4743 130.612L42.8898 138.164C42.8898 138.164 34.1 115.376 42.3689 107.954C50.6378 100.531 56.1721 122.278 57.4743 130.612Z" fill="#375E6D"/>
<path d="M222.917 284.921C220.899 284.53 195.962 284.921 195.962 284.921C193.293 283.293 194.139 280.038 194.986 277.824C195.441 276.131 195.767 274.048 196.027 271.704C196.743 265.519 197.004 257.575 197.395 249.762C197.981 238.693 198.762 227.82 201.431 222.351C201.431 222.221 201.431 222.156 201.431 222.025L200.324 219.551L199.348 217.338L197.329 212.65H197.264L186.977 190.903L184.894 208.678L184.503 215.71L183.787 228.341C182.81 233.289 176.299 235.633 167.184 241.819C161.259 245.856 148.302 255.296 141.466 260.31C138.861 262.263 137.103 263.5 137.103 263.5C136.843 263.956 138.666 270.402 140.098 276.587V276.652C140.814 279.517 141.531 283.359 141.531 283.359C141.596 283.619 139.382 286.093 137.885 283.814C136.778 282.121 123.04 263.305 123.04 263.305C122.389 260.245 125.318 258.617 127.467 257.705C129.095 256.989 132.09 255.296 133.978 253.734C134.564 253.343 135.085 252.952 135.736 252.497C146.674 244.293 161.584 227.234 169.528 225.867L167.444 214.017V213.887C167.444 213.822 167.379 213.691 167.379 213.561C167.379 213.496 167.379 213.431 167.314 213.366C166.468 208.938 162.04 185.108 161.715 180.941C161.519 178.663 161.975 175.863 162.691 172.868C164.124 167.464 166.663 161.539 168.551 157.502C169.918 154.572 170.96 152.619 170.96 152.619C192.056 159.195 201.822 149.884 201.822 149.884L205.533 168.18V168.31L211.198 196.437C212.174 200.279 213.021 203.795 213.477 206.725C214.323 212.454 214.844 217.012 214.844 219.616C214.714 224.369 213.281 228.276 211.523 238.693C209.961 247.548 208.073 257.445 206.705 264.477C206.119 267.472 205.663 269.946 205.273 271.639C205.012 273.071 204.817 273.918 204.817 274.048C204.947 274.569 212.891 277.499 218.36 280.689C218.685 280.429 218.816 280.298 218.816 280.233C218.816 280.298 218.36 280.689 218.36 280.689C220.964 282.317 225.587 285.442 222.917 284.921Z" fill="#16333C"/>
<path d="M140.098 276.652C140.814 279.517 141.531 283.358 141.531 283.358C141.596 283.619 139.382 286.093 137.885 283.814C136.778 282.121 123.04 263.305 123.04 263.305C122.389 260.245 125.318 258.617 127.467 257.705C129.095 256.989 132.025 255.296 133.978 253.734C134.564 253.343 135.085 252.952 135.671 252.497L141.4 260.245C138.796 262.198 137.038 263.435 137.038 263.435C136.713 263.891 138.601 270.337 140.033 276.522C140.098 276.652 140.098 276.652 140.098 276.652Z" fill="#FFC9B9"/>
<path d="M222.917 284.986C220.898 284.596 195.962 284.986 195.962 284.986C193.292 283.359 194.138 280.103 194.985 277.889C195.441 276.196 195.766 274.113 196.027 271.769H205.272C205.012 273.201 204.816 274.048 204.816 274.178C204.947 274.699 212.89 277.629 218.359 280.819C218.685 280.559 218.815 280.429 218.815 280.363C218.815 280.429 218.359 280.819 218.359 280.819C220.964 282.317 225.586 285.442 222.917 284.986Z" fill="#FFC9B9"/>
<path d="M224.675 285.507H193.228L194.53 278.15C194.53 278.15 198.632 278.931 201.301 277.629C203.971 276.652 205.403 273.788 205.403 273.788C205.403 273.788 210.612 276.132 215.69 278.345C220.378 280.364 225.652 282.187 224.675 285.507Z" fill="white"/>
<path d="M193.192 288.651H224.771V285.591H193.192V288.651Z" fill="#BABCBE"/>
<path d="M140.033 285.246L122.844 258.877L129.745 255.947C129.745 255.947 131.308 259.789 133.847 261.351C136.126 263.044 139.251 262.654 139.251 262.654C139.251 262.654 140.098 268.318 141.074 273.787C141.986 278.866 143.353 284.205 140.033 285.246Z" fill="white"/>
<path d="M120.657 260.233L137.911 286.679L140.419 285.043L123.165 258.596L120.657 260.233Z" fill="#BABCBE"/>
<path d="M209.7 98.9686C209.7 98.9686 206.64 97.9919 205.468 96.2991C204.361 94.6062 201.366 92.1321 201.366 90.9601C201.366 89.723 203.124 89.7881 205.533 92.5227C205.533 92.5227 205.729 90.9601 205.598 90.1788C205.468 89.3975 203.385 84.3841 203.515 83.2772C203.645 82.1703 204.296 82.4308 205.208 83.9283C206.119 85.4258 207.747 89.137 207.812 89.2021C207.877 89.2021 206.901 85.4909 206.445 84.384C205.989 83.2772 205.077 81.0635 205.338 80.4775C205.598 79.8915 206.705 80.6077 207.291 81.8448C207.877 83.0819 209.765 87.5744 209.896 87.9C210.026 88.2255 208.984 82.2354 208.919 81.7146C208.854 81.1937 209.505 80.2171 210.286 81.7146C211.068 83.2121 211.784 87.7697 211.784 87.7697C211.784 87.7697 211.914 84.5143 212.174 83.9934C212.435 83.4725 212.891 82.8214 213.281 83.733C213.607 84.6445 213.477 88.6813 213.542 88.9417C213.607 89.2021 215.69 93.6296 214.649 96.0386C214.844 97.1455 210.742 98.9686 209.7 98.9686Z" fill="#FFC9B9"/>
<path d="M230.601 128.984C228.452 123.515 221.746 104.959 218.23 98.3827C217.774 96.8852 216.277 97.1456 216.407 96.4945C216.537 95.7783 216.537 93.2391 215.691 93.1739C214.844 93.1088 212.175 95.9737 210.156 96.2341C208.138 96.4945 206.445 97.992 206.771 98.8385C207.227 100.01 209.505 100.141 208.789 100.922C208.073 101.703 208.789 103.787 208.789 103.787H208.854C209.57 106.912 214.584 128.073 219.272 135.43C225.783 146.824 233.466 136.797 230.601 128.984Z" fill="#FFB731"/>
<path d="M230.34 128.528C224.024 121.692 206.966 108.344 201.562 105.219C184.503 97.6012 189.777 117.004 193.358 120.91C198.111 126.184 209.635 132.63 220.053 139.922C231.447 146.824 233.335 133.802 230.34 128.528Z" fill="#FFB731"/>
<path d="M210.612 111.535C210.612 111.535 213.216 120.975 213.672 122.213L208.268 109.777L210.612 111.535Z" fill="#F5AD00"/>
<path d="M205.598 114.53C205.598 114.53 211.067 124.752 209.7 132.956C209.7 132.956 219.14 139.206 222.852 141.225L212.955 131.719C213.02 131.719 210.872 119.218 205.598 114.53Z" fill="#F5AD00"/>
<path d="M202.342 166.487C201.496 167.464 173.043 168.505 169.723 168.57C166.988 165.836 165.946 164.338 169.462 154.377C172.783 148.972 170.96 137.253 170.96 137.253L161.584 107.237C161.584 107.237 165.751 101.833 182.093 98.1221C196.873 99.0987 204.556 112.707 207.356 118.436C209.7 126.835 207.291 137.774 203.059 148.973C200.845 156.916 202.342 166.487 202.342 166.487Z" fill="#FFC9B9"/>
<path d="M230.795 97.3407L219.401 99.945C218.815 99.945 218.359 100.466 218.359 101.052L218.75 122.278C218.75 123.319 219.662 123.71 220.248 123.71L231.251 120.78C231.837 120.78 232.293 120.259 232.293 119.673V98.4475C232.293 97.8615 231.381 97.2756 230.795 97.3407Z" fill="#434244"/>
<path d="M231.447 97.7964L220.052 100.401C219.467 100.401 219.011 100.922 219.011 101.508L219.401 122.733C219.401 123.319 219.922 123.775 220.508 123.775L231.902 121.171C232.488 121.171 232.944 120.65 232.944 120.064L232.553 98.8381C232.553 98.2522 232.033 97.7964 231.447 97.7964Z" fill="#3D4E75"/>
<path d="M226.889 101.768L225 102.159C224.74 102.224 224.479 102.745 224.479 103.331C224.479 103.917 224.74 104.308 225.065 104.242L226.954 103.852C227.214 103.787 227.475 103.266 227.475 102.68C227.409 102.094 227.149 101.703 226.889 101.768Z" fill="#919395"/>
<path d="M161.063 121.757C156.636 115.441 162.3 100.727 170.634 111.274C176.82 116.483 191.599 142.201 191.599 142.201C199.217 135.365 209.374 126.054 212.63 122.799C212.89 121.041 213.216 118.762 213.541 117.85C214.127 116.288 214.909 112.967 215.169 112.186C215.429 111.405 220.834 109.647 221.615 109.907C222.396 110.167 224.545 110.167 222.396 111.47C219.987 112.446 217.904 113.162 217.904 113.162L216.862 116.809C216.862 116.809 219.271 114.204 219.987 113.748C220.703 113.293 226.368 112.902 226.954 113.423C227.54 113.944 226.693 115.376 225.391 115.441C225.391 115.441 226.693 115.572 226.889 116.027C227.084 116.483 226.824 117.004 225.066 117.264C225.066 117.264 226.042 117.785 225.977 118.371C225.652 119.543 221.94 119.608 221.68 119.804C221.419 119.999 222.266 124.491 218.294 126.64C218.164 126.705 218.034 126.77 217.838 126.835C209.504 139.336 196.417 155.093 191.209 155.939C184.502 155.679 166.728 130.872 161.063 121.757Z" fill="#FFC9B9"/>
<path d="M221.224 125.143C221.159 123.58 218.099 123.84 216.081 122.082C214.062 120.324 213.932 119.087 213.541 118.241C213.541 118.241 212.63 118.306 212.5 118.892C212.304 119.478 211.067 121.952 210.807 122.668C210.546 123.385 208.658 122.603 207.161 123.84C205.663 125.077 192.121 139.271 191.99 139.467C191.86 139.662 177.21 113.358 173.043 108.67C168.811 103.982 166.142 103.396 166.142 103.396C166.142 103.396 159.631 105.61 158.394 115.051C157.157 124.491 184.763 155.809 189.256 156.851C193.748 157.893 198.827 153.27 205.142 147.215C211.393 141.225 215.755 135.43 216.146 133.737C216.537 132.044 217.253 129.505 217.253 129.505C217.253 129.505 221.29 126.705 221.224 125.143Z" fill="#FFC700"/>
<path d="M206.445 145.001C205.728 150.21 206.184 154.767 206.51 157.111C206.705 158.153 206.835 158.739 206.835 158.739C206.575 161.148 205.598 161.474 204.882 162.385C206.054 163.948 209.375 166.747 204.752 168.57C196.092 173.584 162.561 171.435 162.952 167.203C163.082 166.031 163.473 165.38 163.928 164.859C164.514 164.208 165.23 163.817 165.296 163.101C163.928 161.929 162.821 159.195 164.124 156.069C166.142 151.316 167.379 145.392 167.379 145.261C167.574 142.917 166.598 138.881 165.621 134.974C164.579 130.872 163.473 126.966 163.603 125.468C163.603 125.468 165.426 126.314 164.514 117.394C164.124 113.227 168.486 108.279 165.947 103.331C172.067 99.4894 172.588 100.922 172.588 100.922C172.588 100.922 187.889 111.99 191.925 111.6C194.399 111.665 194.009 102.224 193.879 102.094C194.009 102.159 196.288 103.005 199.087 104.633C199.348 104.959 205.012 112.772 208.072 119.283C209.114 121.496 209.635 123.775 209.765 125.338C209.895 126.249 209.961 127.161 209.961 128.072C209.961 128.463 209.961 128.789 209.961 129.179C209.83 135.039 207.552 137.448 206.445 145.001Z" fill="#FFC700"/>
<path d="M210.546 122.929C210.546 122.929 208.268 122.799 207.096 123.84C205.989 124.882 191.925 139.467 191.925 139.467L192.251 144.089C192.251 144.089 191.079 141.094 190.948 141.29C190.818 141.485 187.628 146.043 187.628 146.043L190.623 137.253L176.494 113.553L192.055 136.341C192.055 136.341 206.249 123.515 206.965 122.864C207.616 122.213 210.546 122.929 210.546 122.929Z" fill="#FFB731"/>
<path d="M164.188 129.049C164.188 129.049 183.591 154.963 189.19 156.916C194.79 158.869 206.444 146.043 206.444 146.043C206.444 146.043 196.873 159.716 189.646 158.674C182.354 157.632 165.816 135.039 165.816 135.039L164.188 129.049Z" fill="#FFB731"/>
<path d="M180.791 166.682C178.057 167.789 174.932 167.919 172.002 167.464C170.504 167.268 169.072 166.878 167.639 166.357C166.923 166.096 166.207 165.836 165.556 165.576C165.23 165.445 164.905 165.315 164.579 165.12C164.449 165.055 164.188 164.99 163.993 164.859C164.579 164.208 165.295 163.818 165.426 163.167C166.598 164.404 168.16 165.185 169.723 165.771C173.239 166.943 177.08 167.008 180.791 166.682Z" fill="#DC9B3A"/>
<path d="M152.078 162.906C151.687 164.273 147.585 171.045 148.302 174.235C149.018 177.425 175.192 182.764 177.34 179.509C179.489 176.253 177.275 164.404 177.275 164.404L152.078 162.906Z" fill="#808083"/>
<path d="M161.909 125.598C157.221 138.881 153.966 155.158 153.771 156.135L155.919 156.59C155.984 156.395 159.175 141.16 163.472 128.138C162.886 127.226 162.365 126.315 161.909 125.598Z" fill="#434244"/>
<path d="M180.921 153.009C180.921 153.009 178.707 157.372 177.405 159.585L179.293 160.692C180.531 158.674 181.637 156.59 182.679 154.507C182.028 154.051 180.921 153.009 180.921 153.009Z" fill="#434244"/>
<path d="M188.409 131.328C188.409 131.328 189.386 132.89 189.972 133.542C194.139 116.027 194.464 103.201 194.074 102.159L191.795 100.01C192.12 101.378 192.055 115.246 188.409 131.328Z" fill="#434244"/>
<path d="M154.162 154.116C154.162 154.116 150.19 164.403 149.474 165.51C148.757 166.617 160.542 174.821 162.691 175.081C164.84 175.342 176.95 172.477 178.838 170.133C179.619 168.636 179.815 157.567 179.815 157.567L154.162 154.116Z" fill="#4F4E50"/>
<path d="M166.206 170.98C166.011 172.347 164.774 173.323 163.341 173.128C161.974 172.933 160.998 171.696 161.193 170.263C161.388 168.896 162.625 167.919 164.058 168.115C165.425 168.31 166.402 169.612 166.206 170.98Z" fill="white"/>
<path d="M402.88 89.4627C402.88 89.4627 405.224 86.5327 413.558 86.5327C421.827 86.5327 426.319 89.4627 426.319 89.4627L428.142 80.8682L423.129 78.0034L401.252 81.0636L402.88 89.4627Z" fill="#2F2118"/>
<path d="M395.002 109.125L389.467 109.516C389.467 109.516 380.613 139.857 380.808 146.628C381.915 153.791 387.189 147.931 389.988 144.805C392.267 141.745 399.559 117.329 399.559 117.329L395.002 109.125Z" fill="#FFC9B9"/>
<path d="M411.603 274.764C411.929 273.852 397.019 160.822 397.019 160.822L418.44 160.562H418.505L420.002 180.746H419.937H418.505C418.505 180.746 418.179 272.29 418.374 273.657C418.57 275.024 422.021 280.819 421.695 285.051C421.304 289.023 407.176 287.135 406.98 284.856C406.915 282.577 410.106 277.368 411.603 274.764Z" fill="#FFC2AF"/>
<path d="M397.02 161.669L406.525 253.083H417.724V159.325L397.02 161.669Z" fill="#214854"/>
<path d="M418.569 253.082L419.155 246.767H410.431L409.389 250.804L408.217 246.767H404.311L406.003 253.082H418.569Z" fill="#16333C"/>
<path d="M409.129 278.475C409.129 278.475 410.691 283.033 414.142 283.619C417.528 284.14 421.044 280.363 421.044 280.363C421.044 280.363 422.346 284.335 422.216 286.679C422.216 287.656 418.114 289.218 413.1 288.632C410.561 288.111 406.524 285.637 406.524 284.14C406.85 282.251 409.129 278.475 409.129 278.475Z" fill="#16333C"/>
<path d="M437.061 160.497C437.061 160.497 425.081 274.308 425.406 275.22C425.992 277.759 428.662 284.53 428.531 286.679C428.401 289.023 415.705 291.237 415.249 287.265C415.705 283.098 417.788 274.959 417.984 273.657C418.179 272.29 416.551 180.746 416.551 180.746L416.421 160.627L437.061 160.497Z" fill="#FFC9B9"/>
<path d="M437.061 160.497L428.336 253.082H417.202L415.64 159.325L437.061 160.497Z" fill="#16333C"/>
<path d="M416.551 253.082L415.965 246.767H424.755L425.731 250.804L426.903 246.767H430.81L429.182 253.082H416.551Z" fill="#16333C"/>
<path d="M396.628 161.408L395.717 165.055C395.717 165.055 406.981 168.831 415.119 168.505C431.071 169.742 438.103 164.013 438.103 164.013L436.996 158.934L396.628 161.408Z" fill="white"/>
<path d="M436.932 156.2C437.518 158.869 437.909 160.497 437.909 160.497C432.439 165.966 416.683 165.771 416.683 165.771C416.683 165.771 401.773 166.227 396.173 160.888C396.173 160.888 400.145 142.917 399.624 131.263C399.559 129.635 399.429 128.138 399.168 126.835L388.946 109.321C388.946 109.321 401.903 96.1038 415.902 94.2808C429.9 95.8434 443.248 108.8 443.248 108.8L433.742 124.817C432.309 132.826 435.304 148.582 436.932 156.2Z" fill="#3EAE96"/>
<path d="M406.98 97.8616C406.98 97.8616 408.152 104.112 415.51 103.787C422.932 103.461 423.518 97.1454 423.518 97.1454L422.802 93.89L421.695 89.2021L422.281 86.8582L414.859 88.3557L407.306 87.5092L407.762 89.4625L407.632 90.8298L406.98 97.8616Z" fill="#FFC9B9"/>
<path opacity="0.5" d="M406.916 89.4625C407.046 89.723 407.242 90.1787 407.632 90.7647C409.26 93.2389 413.557 97.471 422.738 93.89L421.631 89.2021L422.217 86.8582L414.794 88.3557L407.242 87.5092L406.916 89.4625Z" fill="#FFBAA4"/>
<path d="M415.155 93.2903C422.017 92.992 427.222 84.508 426.78 74.3408C426.338 64.1736 420.417 56.1733 413.555 56.4716C406.693 56.7699 401.488 65.2539 401.93 75.4211C402.372 85.5883 408.293 93.5886 415.155 93.2903Z" fill="#FFC9B9"/>
<path d="M408.283 73.7061C409.064 73.5108 409.846 73.641 410.757 74.0968C411.083 74.2921 411.474 74.1619 411.669 73.8363C411.864 73.5108 411.734 73.1201 411.408 72.9248C410.171 72.2737 408.999 72.0784 407.893 72.4039C406.135 72.9248 405.223 75.2687 405.549 75.4641C405.614 75.5943 407.111 74.0968 408.283 73.7061Z" fill="#583C1C"/>
<path d="M420.784 72.8598C420.002 72.7296 419.221 72.99 418.375 73.576C418.114 73.7713 417.659 73.7062 417.463 73.4458C417.268 73.1854 417.333 72.7296 417.593 72.5343C418.7 71.6878 419.872 71.3623 420.979 71.5576C422.737 71.8181 424.039 74.0318 423.714 74.2922C423.649 74.3573 422.021 73.0551 420.784 72.8598Z" fill="#583C1C"/>
<path d="M420.654 61.9213C420.654 61.9213 417.333 63.5491 414.989 67.4556C412.646 71.3622 408.153 74.1619 403.335 73.8363C403.335 73.8363 402.814 86.4024 406.59 94.6713C406.59 94.6713 396.368 90.5043 395.326 81.2588C394.35 72.0133 398.777 63.4839 402.814 59.3821C408.218 54.1733 418.766 52.7409 420.719 58.3403C420.719 58.3403 429.639 56.387 431.657 72.9248C433.611 89.4626 423.063 97.2106 423.063 97.2106C423.063 97.2106 427.36 81.1286 424.365 69.6042C422.347 62.898 420.654 61.9213 420.654 61.9213Z" fill="#6C301E"/>
<path d="M427.361 61.7911C427.361 61.7911 427.881 49.1599 417.399 47.4671C406.916 45.7742 401.121 52.8711 400.991 60.4889C400.991 60.554 419.027 57.1032 427.361 61.7911Z" fill="#16333C"/>
<path d="M437.452 65.5674C437.452 67.716 435.824 69.7344 433.09 71.3622C432.439 71.7528 432.308 71.883 431.527 72.2086C429.965 68.888 424.951 63.0282 413.492 62.8979C400.014 62.7026 396.563 70.3204 395.912 72.4039C395.522 72.2086 395.131 72.0784 394.805 71.883C391.55 70.1902 389.597 67.9765 389.597 65.6325C389.597 62.3119 393.503 59.3169 399.558 57.4939C401.967 56.7776 404.767 56.1917 407.762 55.8661C409.585 55.6708 411.539 55.6057 413.557 55.6057C426.774 55.5406 437.452 60.0331 437.452 65.5674Z" fill="#214854"/>
<path d="M414.6 84.0586H414.665C414.991 83.9935 415.772 83.7331 415.707 81.7798C415.707 78.5894 415.121 76.8315 415.056 76.7664C414.991 76.6361 414.925 76.571 414.795 76.6361C414.665 76.7012 414.6 76.7664 414.665 76.8966C414.665 76.8966 415.251 78.6545 415.251 81.7798C415.251 83.082 414.925 83.6028 414.535 83.668C414.014 83.7331 413.233 82.9517 412.842 81.5193C412.842 81.3891 412.712 81.324 412.582 81.3891C412.451 81.3891 412.386 81.5193 412.451 81.6496C412.972 83.082 413.819 84.1237 414.6 84.0586Z" fill="#FFAB90"/>
<path d="M414.665 87.2491C417.204 87.1189 418.636 85.1005 418.701 85.0354C418.767 84.9703 418.767 84.8401 418.636 84.7749C418.571 84.7098 418.441 84.7098 418.376 84.8401C418.376 84.8401 416.943 86.7933 414.6 86.9236C412.256 87.0538 411.019 85.2307 411.019 85.1656C410.953 85.1005 410.888 85.0354 410.758 85.1005C410.693 85.1656 410.628 85.2307 410.693 85.3609C410.823 85.426 412.125 87.3793 414.665 87.2491Z" fill="#FFAB90"/>
<path d="M435.694 109.125L441.229 109.516C441.229 109.516 450.084 139.857 449.888 146.628C448.781 153.791 443.507 147.931 440.708 144.805C438.429 141.745 431.137 117.329 431.137 117.329L435.694 109.125Z" fill="#FFC9B9"/>
<path d="M446.502 125.077L435.824 126.64L434.522 126.835L399.689 128.268L398.712 128.333L396.694 127.747L395.782 127.487L385.234 124.557L388.164 109.647C392.657 103.917 405.418 97.7966 405.418 97.7966C405.418 97.7966 409.846 108.8 416.226 108.214C421.565 107.237 424.626 96.7549 424.626 96.7549C428.858 97.7966 443.377 106.131 444.028 109.061C444.614 111.86 446.502 125.077 446.502 125.077Z" fill="#3EAE96"/>
<path d="M433.611 128.333L447.74 125.663L447.089 121.692L431.593 124.882L433.611 128.333Z" fill="white"/>
<path d="M397.996 128.203L384.128 124.361L385.105 120.455L399.103 124.817L397.996 128.203Z" fill="white"/>
<path d="M415.641 283.163C415.641 283.163 418.05 287.395 421.501 287.33C424.951 287.265 427.686 282.903 427.686 282.903C427.686 282.903 429.704 286.614 429.965 288.893C430.16 289.869 426.384 292.148 421.37 292.474C418.766 292.409 414.339 290.716 414.078 289.283C414.078 287.33 415.641 283.163 415.641 283.163Z" fill="#272425"/>
<path d="M420.263 103.917H409.65C408.674 103.917 407.827 104.763 407.827 105.805V127.617C407.827 128.659 408.608 129.505 409.65 129.505H420.263C421.24 129.505 422.086 128.659 422.086 127.617V105.805C422.086 104.763 421.305 103.917 420.263 103.917Z" fill="#434244"/>
<path d="M410.106 105.284C409.585 105.284 409.194 105.675 409.194 106.196V107.954C409.194 108.475 409.585 108.865 410.106 108.865C410.627 108.865 411.017 108.475 411.017 107.954V106.196C410.952 105.675 410.562 105.284 410.106 105.284Z" fill="#6D6E70"/>
<path d="M431.528 126.38C431.528 126.38 429.509 120.129 428.142 117.199C426.905 115.116 422.282 113.488 421.37 113.162C420.459 112.772 416.813 114.334 416.357 115.116C415.901 115.962 416.422 116.288 417.008 116.353C418.636 116.613 420.85 115.506 420.98 115.572C421.175 115.637 424.365 118.046 424.365 118.046C424.365 118.046 421.11 118.176 420.198 118.306C419.352 118.436 415.771 120.455 415.511 120.976C415.315 121.497 415.836 122.213 417.334 121.887C417.334 121.887 415.706 122.603 415.38 123.124C415.12 123.515 414.99 125.208 419.222 123.71C419.222 123.71 417.334 124.231 417.529 125.078C417.724 125.924 421.631 124.426 421.631 124.426C421.631 124.426 421.956 126.77 424.756 126.901L427.686 130.742L431.528 126.38Z" fill="#FFC9B9"/>
<path d="M425.602 124.296L424.561 126.705C424.561 126.705 431.267 135.235 435.434 144.48C439.015 151.707 445.135 154.507 447.935 153.009C450.735 151.512 450.8 146.043 447.609 141.615C445.005 137.578 429.118 122.213 429.118 122.213L425.602 124.296Z" fill="#FFC9B9"/>
<path opacity="0.5" d="M435.173 128.073L445.981 139.402L437.712 129.179L445.721 126.054L435.173 128.073Z" fill="#FFBAA4"/>
<path d="M399.168 126.38C399.168 126.38 401.186 120.129 402.554 117.199C403.791 115.116 408.414 113.488 409.325 113.162C410.237 112.772 413.883 114.334 414.338 115.116C414.794 115.962 414.273 116.288 413.687 116.353C412.06 116.613 409.846 115.506 409.716 115.572C409.52 115.637 406.33 118.046 406.33 118.046C406.33 118.046 409.585 118.176 410.497 118.306C411.343 118.436 414.924 120.455 415.185 120.976C415.38 121.497 414.859 122.213 413.362 121.887C413.362 121.887 414.99 122.603 415.315 123.124C415.576 123.515 415.706 125.208 411.474 123.71C411.474 123.71 413.362 124.231 413.166 125.078C412.971 125.924 409.065 124.426 409.065 124.426C409.065 124.426 408.739 126.77 405.939 126.901L403.009 130.742L399.168 126.38Z" fill="#FFC9B9"/>
<path d="M405.093 124.296L406.135 126.705C406.135 126.705 399.428 135.235 395.261 144.48C391.68 151.707 385.56 154.507 382.76 153.009C379.961 151.512 379.896 146.043 383.086 141.615C385.69 137.578 401.577 122.213 401.577 122.213L405.093 124.296Z" fill="#FFC9B9"/>
<path opacity="0.5" d="M395.977 127.617L385.169 139.011L393.438 128.789L385.364 124.752L395.977 127.617Z" fill="#FFBAA4"/>
<path d="M409.586 75.9832L407.567 76.0146C407.567 76.0146 407.893 76.3294 409.065 76.3924C408.935 76.6442 408.87 76.9905 408.87 77.3998C408.87 78.1868 409.195 78.8164 409.651 78.8164C410.042 78.8164 410.432 78.1868 410.432 77.3998C410.367 76.6128 410.042 75.9832 409.586 75.9832Z" fill="#434244"/>
<path d="M421.306 76.0461L419.287 76.0146C418.897 76.0146 418.506 76.6443 418.506 77.4313C418.506 78.2183 418.831 78.8479 419.287 78.8479C419.678 78.8479 420.069 78.2183 420.069 77.4313C420.069 77.022 420.003 76.6757 419.873 76.4239C420.98 76.3295 421.306 76.0461 421.306 76.0461Z" fill="#434244"/>
<path d="M181.475 80.2808C181.06 86.9601 180.077 93.6434 178.547 100.195C178.235 101.52 178.538 102.883 179.361 103.737C181.625 106.088 184.74 107.311 187.853 107.025C189.436 106.879 190.74 105.264 190.851 103.38C191.103 99.0579 191.534 94.9702 192.188 90.5316C189.745 85.6596 185.899 82.4805 181.475 80.2808Z" fill="#FFC9B9"/>
<path d="M192.183 90.5337C189.744 85.6609 185.899 82.4805 181.471 80.2803C181.361 82.0385 181.211 83.7961 181.023 85.5519C183.114 91.304 186.574 97.2238 191.071 100.358C191.328 97.1163 191.684 93.9226 192.183 90.5337Z" fill="#FFAB90"/>
<path d="M200.39 70.4734C200.881 81.037 196.117 92.3786 193.357 92.3118C184.205 92.0919 179.764 82.7346 179.726 82.6216C179.764 82.7346 178.301 83.2252 177.49 83.2273C176.69 83.2286 175.572 82.3557 175.096 81.7303C174.174 80.5221 173.194 78.6109 174.011 77.1157C174.994 75.3156 178.062 74.9002 179.209 76.8732C182.861 72.1165 181.001 68.9689 181.572 65.1363C186.595 62.4883 192.584 62.0133 198.216 63.4541C199.158 63.6945 200.345 69.4979 200.39 70.4734Z" fill="#FFC9B9"/>
<path d="M189.267 73.1812C189.223 73.0698 189.155 72.9753 189.06 72.8985C188.971 72.8136 188.869 72.7569 188.752 72.728C188.64 72.6761 188.519 72.657 188.394 72.6692C188.314 72.6853 188.232 72.7013 188.152 72.7175C187.999 72.7697 187.869 72.8565 187.762 72.9768C187.717 73.0417 187.674 73.1069 187.63 73.1708C187.555 73.3179 187.523 73.4753 187.534 73.6406L187.539 73.7384C187.543 73.8652 187.577 73.9814 187.64 74.0855C187.684 74.1969 187.755 74.2919 187.849 74.3685C187.937 74.4533 188.039 74.51 188.156 74.5403C188.268 74.5909 188.387 74.6095 188.513 74.5976L188.756 74.5508C188.907 74.4968 189.037 74.41 189.146 74.2902L189.278 74.0961C189.352 73.9489 189.384 73.7927 189.375 73.6265L189.369 73.5298C189.365 73.403 189.33 73.2866 189.267 73.1812Z" fill="#3B1411"/>
<path d="M198.242 73.2059C198.197 73.0943 198.13 73 198.036 72.9234C197.947 72.8385 197.844 72.7816 197.728 72.7516C197.615 72.7008 197.493 72.6816 197.368 72.6938C197.288 72.71 197.208 72.7262 197.128 72.7424C196.974 72.7943 196.844 72.8812 196.737 73.0014C196.692 73.0664 196.649 73.1303 196.606 73.1957C196.531 73.3427 196.498 73.5002 196.509 73.6653L196.514 73.7631C196.519 73.8901 196.553 74.005 196.614 74.1102C196.659 74.2218 196.729 74.3165 196.823 74.3931C196.912 74.478 197.015 74.5349 197.131 74.5649C197.243 74.6155 197.363 74.6344 197.489 74.6225L197.73 74.5754C197.881 74.5215 198.013 74.4348 198.122 74.3151L198.254 74.121C198.327 73.9735 198.359 73.8174 198.35 73.6512L198.343 73.5545C198.339 73.4277 198.304 73.3113 198.242 73.2059Z" fill="#3B1411"/>
<path d="M178.002 80.3303C177.72 80.4458 177.305 80.3237 177.217 79.9933C177.174 79.8238 177.253 79.6774 177.35 79.5382C177.446 79.404 177.593 79.3189 177.743 79.3085C177.98 79.2913 178.148 79.052 178.068 78.8239C177.733 77.8629 176.885 76.9095 175.762 77.092C175.263 77.1725 174.824 77.4828 174.638 77.9605C174.554 78.1843 174.546 78.4231 174.62 78.65C174.663 78.7811 174.854 79.1151 175.033 78.9322C175.136 78.8233 175.094 78.675 175.123 78.5409C175.154 78.3978 175.202 78.2618 175.278 78.136C175.43 77.8793 175.71 77.7701 175.999 77.7808C176.58 77.8012 176.977 78.2319 177.224 78.7193C176.719 78.9832 176.424 79.5753 176.618 80.1555C176.829 80.7839 177.585 81.158 178.207 80.927C178.59 80.7847 178.378 80.1761 178.002 80.3303Z" fill="#FFAB90"/>
<path d="M191.512 68.0716C189.614 67.9069 187.709 68.2931 186.009 69.1447C185.526 69.3874 185.964 70.1028 186.448 69.8616C188.016 69.0754 189.78 68.7581 191.528 68.9106C191.755 68.9299 191.944 68.693 191.941 68.4842C191.936 68.2378 191.74 68.0912 191.512 68.0716Z" fill="#6C301E"/>
<path d="M199.864 69.7821C199.117 68.7753 197.909 68.1635 196.649 68.2046C196.429 68.2118 196.22 68.4011 196.236 68.6309C196.25 68.8551 196.427 69.05 196.664 69.0433C196.796 69.0392 196.927 69.0399 197.059 69.0517C197.069 69.0535 197.113 69.0573 197.118 69.0582L197.175 69.0658C197.237 69.0756 197.298 69.0865 197.358 69.0999C197.489 69.1273 197.616 69.162 197.741 69.2044C197.774 69.2155 197.808 69.2269 197.838 69.2389C197.843 69.2411 197.87 69.2513 197.879 69.2555C197.893 69.2621 197.943 69.2829 197.95 69.2856C197.981 69.2991 198.015 69.3143 198.044 69.3289C198.158 69.3838 198.267 69.4444 198.372 69.511C198.425 69.5431 198.477 69.5789 198.528 69.6133C198.542 69.6238 198.544 69.624 198.551 69.6292C198.554 69.6299 198.551 69.6292 198.56 69.6349C198.586 69.6567 198.615 69.6779 198.64 69.6997C198.737 69.7781 198.829 69.8636 198.917 69.9524C198.964 70.0019 199.011 70.0528 199.058 70.1062C199.071 70.1218 199.084 70.1374 199.098 70.1546C199.102 70.1607 199.146 70.2175 199.146 70.2175C199.281 70.3996 199.517 70.4831 199.723 70.3581C199.904 70.2485 199.999 69.9655 199.864 69.7821Z" fill="#6C301E"/>
<path d="M193.692 87.0536L190.91 86.9617C190.69 86.9542 190.483 87.1705 190.497 87.388C190.512 87.6243 190.689 87.7928 190.925 87.8004L193.707 87.8924C193.927 87.8999 194.134 87.6849 194.12 87.466C194.105 87.2298 193.929 87.0616 193.692 87.0536Z" fill="#FFAB90"/>
<path d="M196.253 79.378C196.034 78.8556 195.61 78.4957 195.176 78.1539C194.821 77.8728 194.443 77.5794 194.361 77.111C194.323 76.8878 194.038 76.7678 193.84 76.8266C193.601 76.8966 193.517 77.123 193.554 77.3473C193.726 78.3269 194.709 78.6728 195.277 79.3677C195.517 79.6615 195.63 80.0147 195.357 80.3243C195.034 80.6912 194.521 80.8448 194.132 81.1269C193.948 81.2596 193.868 81.4975 193.991 81.7027C194.102 81.8845 194.384 81.9761 194.569 81.8433C195.023 81.5158 195.579 81.3314 195.961 80.9075C196.347 80.4829 196.476 79.9128 196.253 79.378Z" fill="#FFAB90"/>
<path d="M194.003 84.7196C193.933 84.4842 193.702 84.3924 193.478 84.4347C192.207 84.6741 190.862 84.4891 189.698 83.9277C189.493 83.8287 189.241 83.8818 189.127 84.0883C189.019 84.2759 189.081 84.5592 189.286 84.6582C190.668 85.3263 192.21 85.5241 193.716 85.2403C193.942 85.1972 194.06 84.9196 194.003 84.7196Z" fill="#3B1411"/>
<path d="M194.114 63.3897C193.184 64.1973 191.887 64.6566 190.664 65.1675C189.444 65.6776 188.218 66.3008 187.604 67.2923C186.91 68.4115 187.115 69.7925 186.836 71.0445C186.471 72.6936 185.206 74.1445 183.43 74.9546C181.654 75.7634 179.393 75.92 177.338 75.3755C177.823 71.3762 178.409 67.1643 181.401 64.0983C183.353 62.0975 186.29 60.7854 189.478 60.3648C192.17 60.0093 197.691 60.2825 194.114 63.3897Z" fill="#6C301E"/>
<path d="M85.4224 67.2559C86.902 62.1907 86.5357 56.6109 84.4082 51.7795C84.6898 50.597 84.4616 49.2261 83.8567 48.1696C83.2506 47.1145 82.308 46.2725 81.243 45.6786C79.8103 44.8795 78.0752 44.5143 76.5044 44.9834C74.9348 45.4551 73.6103 46.8728 73.5425 48.5062C72.3237 47.7837 71.3121 47.0586 69.972 46.596C68.6332 46.1334 67.1575 45.9489 65.7939 46.3361C64.4316 46.7221 63.2088 47.7473 62.8217 49.1065C62.4358 50.4658 63.0563 52.107 64.3495 52.6839C63.304 51.4183 60.9015 51.1753 59.3919 51.8276C57.8849 52.4786 56.8016 53.8716 56.1589 55.3803C55.6453 56.581 55.3742 57.9155 55.6101 59.1981C55.8461 60.4806 56.64 61.6969 57.8288 62.2427C55.5814 63.3576 54.854 66.0799 55.3194 68.5372C55.7861 70.9945 57.3374 73.1022 58.9747 74.9968C60.6134 76.8914 62.4058 78.7067 63.5295 80.943L85.4224 67.2559Z" fill="#7A2923"/>
<path d="M84.7032 67.7691C86.0185 62.8936 85.6939 57.523 83.8024 52.8735C84.0527 51.7352 83.8493 50.4163 83.3109 49.3988C82.7738 48.3827 81.9343 47.5731 80.9879 47.0013C79.7169 46.2321 78.1734 45.8799 76.7785 46.3321C75.3836 46.7856 74.2052 48.1514 74.1439 49.7237C73.0619 49.0272 72.1611 48.3294 70.9709 47.8837C69.7807 47.438 68.4693 47.2612 67.2556 47.6329C66.0433 48.0058 64.956 48.9921 64.6145 50.3006C64.2717 51.6092 64.8218 53.188 65.9716 53.7442C65.0434 52.5253 62.9068 52.2914 61.5667 52.919C60.2265 53.5467 59.2606 54.8877 58.6909 56.3392C58.2346 57.4944 57.9961 58.7795 58.2046 60.0127C58.4132 61.2472 59.1198 62.418 60.1757 62.943C58.1786 64.0176 57.532 66.6373 57.9465 69.0023C58.3611 71.3686 59.739 73.3957 61.1951 75.2189C62.65 77.0433 64.2443 78.7897 65.2416 80.9429L84.7032 67.7691Z" fill="#3B1411"/>
<path d="M61.5522 74.1958C62.0801 80.9399 61.9237 87.7373 61.0868 94.4516C60.9173 95.8095 61.4948 97.1531 62.6185 97.938C65.7224 100.104 69.6815 101.062 73.4046 100.504C75.2961 100.22 76.6245 98.485 76.4668 96.584C76.1057 92.2217 75.9936 88.0778 76.0978 83.5648C72.3917 78.8816 67.2463 76.0215 61.5522 74.1958Z" fill="#FFC9B9"/>
<path d="M76.0985 83.5648C72.3923 78.8816 67.2482 76.0215 61.5527 74.1958C61.6896 75.9708 61.7809 77.7485 61.8252 79.5287C64.0648 87.0291 69.9102 91.6902 76.2692 93.529C76.0802 90.2505 76.0176 87.0122 76.0985 83.5648Z" fill="#FFAB90"/>
<path d="M85.4981 63.2004C86.7587 72.6187 84.7824 88.7514 77.649 89.483C69.2629 90.3432 64.115 82.9039 62.2443 76.0532C62.2769 76.1701 61.4764 76.6145 60.6591 76.5665C59.8521 76.5197 58.7832 75.5711 58.3413 74.911C57.4874 73.6375 56.6192 71.6507 57.5369 70.194C58.6398 68.441 61.0854 68.0824 62.1178 70.142C62.0422 66.7154 63.1581 63.5421 64.3509 60.3416C64.742 59.2929 65.5698 58.4509 66.6283 58.0831C71.4726 56.4055 77.4274 56.299 82.3525 57.7661C83.5779 58.1312 84.5074 59.1266 84.8659 60.352C85.154 61.3525 85.3925 62.4168 85.4981 63.2004Z" fill="#FFC9B9"/>
<path d="M75.3885 63.7878C73.8671 61.8646 69.6838 63.1914 68.1417 64.4271C67.8614 64.6532 67.5212 64.9417 67.5551 65.3406C67.5746 65.5472 67.6893 65.7266 67.8966 65.7863C68.3685 65.9215 68.8196 65.5303 69.2133 65.325C69.7347 65.0534 70.2861 64.8481 70.8597 64.7208C71.5676 64.5636 72.3028 64.5194 73.025 64.596C73.7237 64.6701 74.3912 64.995 75.0965 64.8897C75.644 64.8066 75.6544 64.1243 75.3885 63.7878Z" fill="#3B1411"/>
<path d="M73.1644 67.1596C73.1266 67.0452 73.0628 66.9451 72.9728 66.862C72.8894 66.7723 72.789 66.7074 72.6743 66.671C72.5635 66.6125 72.4423 66.5865 72.3171 66.5917C72.2337 66.6021 72.1529 66.6125 72.0695 66.6242C71.9143 66.6684 71.7761 66.7476 71.6614 66.862C71.6132 66.9244 71.5649 66.9867 71.5154 67.0491C71.4333 67.1933 71.3903 67.3493 71.3903 67.5156V67.6156C71.3851 67.743 71.4111 67.8625 71.4698 67.9717C71.5076 68.0873 71.5702 68.1861 71.6614 68.2693C71.7435 68.3602 71.8452 68.4239 71.9599 68.4616C72.0707 68.5187 72.192 68.546 72.3184 68.5408L72.5648 68.5083C72.7199 68.4642 72.8594 68.3849 72.9741 68.2693C73.0224 68.2082 73.0706 68.1458 73.1188 68.0821C73.2009 67.9379 73.2452 67.782 73.2452 67.6156V67.5156C73.2465 67.3895 73.2218 67.2713 73.1644 67.1596Z" fill="#3B1411"/>
<path d="M83.3253 67.7338C83.2888 67.6195 83.2249 67.5194 83.1349 67.4363C83.0502 67.3453 82.9498 67.2817 82.8364 67.2453C82.7243 67.1868 82.6044 67.1608 82.4793 67.1647C82.3958 67.1764 82.315 67.1868 82.2316 67.1972C82.0738 67.2427 81.9383 67.3219 81.8236 67.4363C81.7753 67.4986 81.7258 67.561 81.6776 67.6234C81.5954 67.7676 81.5524 67.9236 81.5524 68.0899V68.1899C81.5472 68.3173 81.5733 68.4368 81.6306 68.546C81.6697 68.6616 81.7323 68.7604 81.8236 68.8436C81.9057 68.9345 82.0073 68.9982 82.122 69.0359C82.2329 69.0931 82.3528 69.1203 82.4806 69.1152L82.7256 69.0827C82.8821 69.0385 83.0215 68.9592 83.1363 68.8436C83.1845 68.7825 83.2327 68.7188 83.2809 68.6565C83.3631 68.5122 83.4074 68.3563 83.4074 68.1899V68.0899C83.4087 67.9625 83.3839 67.8443 83.3253 67.7338Z" fill="#3B1411"/>
<path d="M85.1666 65.1219C84.8068 64.4241 84.0325 64.0667 83.2881 63.8705C82.5607 63.6795 81.819 63.647 81.0889 63.8289C80.7513 63.9121 80.5466 64.2578 80.5897 64.5891C80.6666 65.1518 81.145 65.1713 81.5934 65.1765C82.197 65.1843 82.768 65.2622 83.3312 65.4987C83.7066 65.6573 85.6763 66.6397 85.28 65.3974C85.2488 65.3012 85.2096 65.2077 85.1666 65.1219Z" fill="#3B1411"/>
<path d="M76.4966 83.565C76.2228 83.4806 75.8786 83.5637 75.5944 83.565C75.3363 83.565 75.017 83.5455 74.7993 83.5144C74.5229 83.4754 74.2452 83.4169 73.9754 83.348C73.6795 83.2727 73.4031 83.1414 73.0902 83.1687C72.7617 83.1973 72.6444 83.5287 72.8373 83.7781C73.0459 84.0458 73.3836 84.1433 73.6964 84.2485C73.9897 84.3486 74.2909 84.4201 74.5972 84.4669C74.9179 84.5149 75.2386 84.5487 75.5632 84.5552C75.8943 84.5617 76.3167 84.5916 76.61 84.4201C76.9646 84.2122 76.8785 83.6833 76.4966 83.565Z" fill="#DBA18F"/>
<path d="M61.3553 73.6779C61.0619 73.7766 60.6539 73.6285 60.5861 73.2893C60.5535 73.1165 60.6409 72.9748 60.7478 72.8397C60.8508 72.7098 61.0046 72.6344 61.1571 72.6318C61.3957 72.6292 61.5808 72.3979 61.5143 72.164C61.2353 71.1738 60.4427 70.1628 59.2982 70.2772C58.7885 70.3266 58.3296 70.6137 58.1145 71.0841C58.0128 71.3038 57.992 71.5455 58.0519 71.7794C58.0845 71.9132 58.2566 72.2615 58.4482 72.0873C58.5616 71.9847 58.5264 71.8313 58.5629 71.6988C58.6033 71.5558 58.6633 71.422 58.7467 71.2999C58.9162 71.0517 59.2056 70.9568 59.495 70.9854C60.0777 71.0413 60.4532 71.5 60.6709 72.0067C60.1455 72.2419 59.8092 72.8189 59.9695 73.4167C60.1416 74.0625 60.8808 74.4874 61.5247 74.2925C61.9197 74.1729 61.745 73.5466 61.3553 73.6779Z" fill="#DBA18F"/>
<path d="M80.991 72.4982C80.5582 72.0967 80.0263 71.8368 79.5492 71.4963C79.02 71.1195 78.8075 70.7011 78.8739 70.0604C78.917 69.6212 78.3251 69.568 78.1178 69.8564C77.4869 70.7362 78.3473 71.8329 79.0525 72.3423C79.4762 72.6489 79.9598 72.8685 80.3327 73.2402C80.6638 73.5689 80.9089 73.9848 81.0497 74.4279C81.3391 75.3349 81.1918 76.3199 80.5895 77.0709C79.9455 77.874 79.0812 78.0858 78.1335 78.3275C77.8311 78.4042 77.8493 78.833 78.1335 78.9187C79.1177 79.2163 80.2323 78.6835 80.961 78.0455C81.7562 77.3477 82.2059 76.316 82.189 75.2608C82.172 74.2356 81.7484 73.2012 80.991 72.4982Z" fill="#DBA18F"/>
<path d="M77.8128 81.6591C74.8028 82.5415 71.5594 81.372 69.8321 78.7626C69.5336 78.3143 70.2362 77.8608 70.5348 78.3091C72.0548 80.6027 74.9045 81.6423 77.5534 80.8665C78.0697 80.7144 78.3303 81.5071 77.8128 81.6591Z" fill="#3B1411"/>
</svg>
