<svg width="118" height="145" viewBox="0 0 118 145" fill="none" xmlns="http://www.w3.org/2000/svg">
<path d="M30.724 19.1187V54.2295H23.6102V25.0268H17.0993L16.617 37.4699C16.4241 41.5694 15.9578 44.8248 15.2183 47.2363C14.4949 49.6317 13.4258 51.392 12.0111 52.5174C10.6124 53.6427 8.72348 54.2134 6.34417 54.2295H4.60793V48.3455L5.42782 48.2732C6.90685 48.0964 7.96789 47.1318 8.61094 45.3795C9.27007 43.6111 9.68002 40.4922 9.84078 36.023L10.299 19.1187H30.724Z" fill="#FECA38"/>
<path d="M61.1565 39.8331C61.1565 44.5435 60.0392 48.2009 57.8046 50.8052C55.5861 53.4096 52.4994 54.7118 48.5446 54.7118C44.6059 54.7118 41.5112 53.4257 39.2605 50.8535C37.0098 48.2652 35.8684 44.648 35.8363 40.0019V33.9974C35.8363 29.1745 36.9536 25.4126 39.1882 22.7118C41.4228 19.9949 44.5255 18.6364 48.4964 18.6364C52.403 18.6364 55.4816 19.9708 57.7323 22.6394C59.983 25.292 61.1244 29.0218 61.1565 33.8286V39.8331ZM54.0427 33.9492C54.0427 30.7821 53.5926 28.4269 52.6923 26.8836C51.7921 25.3403 50.3934 24.5686 48.4964 24.5686C46.6155 24.5686 45.2249 25.3162 44.3246 26.8113C43.4243 28.2903 42.9581 30.549 42.9259 33.5874V39.8331C42.9259 42.9037 43.3841 45.1705 44.3005 46.6334C45.2168 48.0803 46.6315 48.8037 48.5446 48.8037C50.3934 48.8037 51.7679 48.0964 52.6682 46.6816C53.5685 45.2508 54.0267 43.0403 54.0427 40.0501V33.9492Z" fill="#FF7719"/>
<path d="M86.0186 25.0268H73.4067V54.2295H66.3171V19.1187H86.0186V25.0268Z" fill="#5AB58A"/>
<path d="M115.125 39.8331C115.125 44.5435 114.008 48.2009 111.773 50.8052C109.554 53.4096 106.468 54.7118 102.513 54.7118C98.5743 54.7118 95.4796 53.4257 93.2289 50.8535C90.9782 48.2652 89.8368 44.648 89.8046 40.0019V33.9974C89.8046 29.1745 90.9219 25.4126 93.1565 22.7118C95.3911 19.9949 98.4939 18.6364 102.465 18.6364C106.371 18.6364 109.45 19.9708 111.701 22.6394C113.951 25.292 115.093 29.0218 115.125 33.8286V39.8331ZM108.011 33.9492C108.011 30.7821 107.561 28.4269 106.661 26.8836C105.76 25.3403 104.362 24.5686 102.465 24.5686C100.584 24.5686 99.1932 25.3162 98.2929 26.8113C97.3927 28.2903 96.9264 30.549 96.8943 33.5874V39.8331C96.8943 42.9037 97.3525 45.1705 98.2688 46.6334C99.1852 48.0803 100.6 48.8037 102.513 48.8037C104.362 48.8037 105.736 48.0964 106.637 46.6816C107.537 45.2508 107.995 43.0403 108.011 40.0501V33.9492Z" fill="#1B7389"/>
<path d="M63.7416 112.322C59.8779 102.662 70.4262 103.378 74.1922 104.978C96.5052 110.909 113.734 106.955 112.605 84.9248C111.475 62.8941 81.8179 25.6118 34.65 45.3826C-16.1449 66.6738 -2.35027 120.513 27.3064 134.353C56.963 148.192 68.8256 125.032 63.7416 112.322Z" fill="#E3EEF1"/>
<circle cx="29.4246" cy="112.463" r="7.20239" fill="#FECA38"/>
<circle cx="19.2566" cy="91.562" r="7.20239" fill="#FF7719"/>
<circle cx="29.4246" cy="68.1191" r="7.20239" fill="#EF0000"/>
<circle cx="49.5071" cy="57.104" r="7.20239" fill="#5AB58A"/>
<circle cx="73.5144" cy="58.5161" r="7.20239" fill="#1B7389"/>
<path d="M53.1597 144.669C44.1214 142.635 74.6255 105.786 91.0074 87.6152L99.763 93.2641C87.9945 111.246 62.1979 146.703 53.1597 144.669Z" fill="#326673"/>
<path d="M96.1454 73.2111C87.785 76.8265 89.2727 84.5088 91.0616 87.8981C89.1786 89.1221 87.7351 93.8296 97.8402 93.8295C120.718 93.8294 118.176 64.4553 116.199 66.9973C111.366 73.2111 106.596 68.6919 96.1454 73.2111Z" fill="#FF7719"/>
<path d="M99.7054 93.576L90.8156 87.7024L87.8789 91.1948L97.1654 97.2271L99.7054 93.576Z" fill="#FECA38"/>
</svg>
