<svg width="525" height="499" viewBox="0 0 525 499" fill="none" xmlns="http://www.w3.org/2000/svg">
<path d="M81.067 76.8313L80.3084 106.227L62.6709 98.2619L63.145 68.0125L81.067 76.8313Z" fill="#F7CEB2"/>
<path d="M67.4228 12.1077C52.433 15.4996 52.7612 25.8939 52.7612 25.8939C52.7612 25.8939 53.1989 33.8812 53.5271 43.4002C52.1048 41.5402 49.8071 40.6648 47.3999 41.759C42.2575 43.9473 46.087 60.0312 53.8554 58.6088C54.1836 63.0948 54.6213 66.596 55.1684 67.7996C57.3566 72.395 66.9851 79.3975 75.41 80.4917C83.8349 81.5858 94.6669 75.8962 94.6669 65.8301C94.6669 55.764 94.7763 18.6726 94.7763 18.6726C94.7763 18.6726 92.3692 6.52758 67.4228 12.1077Z" fill="#F7CEB2"/>
<path d="M75.7376 33.5527C74.4246 33.6621 73.3305 33.5527 72.3458 33.5527C71.361 33.5527 70.3763 33.5527 69.501 33.5527C68.6257 33.6621 67.8598 33.7715 66.9845 33.9903C66.1091 34.2092 65.2338 34.7562 64.0303 35.3033C64.0303 33.9903 64.4679 32.6774 65.5621 31.802C66.5468 30.8173 67.9692 30.2702 69.3916 30.2702C70.7045 30.1608 72.0175 30.4891 73.1117 31.1456C74.0964 31.5832 75.0811 32.3491 75.7376 33.5527Z" fill="#432918"/>
<path d="M84.7109 33.5529C85.0392 32.4587 85.8051 31.5834 86.7898 31.0363C87.7745 30.4893 88.8687 30.0516 90.1817 30.2704C91.4946 30.3799 92.6982 31.1457 93.3547 32.1305C94.1206 33.1152 94.3394 34.3188 94.1206 35.4129C93.5735 35.1941 93.1358 34.8658 92.6982 34.647C92.2605 34.4282 91.9323 34.2094 91.604 34.0999C90.9475 33.7717 90.4005 33.6623 89.744 33.6623C89.0875 33.5529 88.431 33.5529 87.5557 33.6623C86.7898 33.5529 85.9145 33.5529 84.7109 33.5529Z" fill="#432918"/>
<path opacity="0.4" d="M48.1649 44.4943C50.7909 43.1814 53.198 47.4485 53.3074 52.0439C51.1191 51.7157 50.7909 54.2322 51.9944 56.0923C47.6178 56.8582 45.3201 45.9167 48.1649 44.4943Z" fill="#B57662"/>
<path d="M81.5377 38.4766C82.0847 39.6801 82.5224 40.9931 82.96 42.3061C83.3977 43.619 83.7259 44.932 83.9448 46.245C84.4918 48.8709 84.9295 51.4969 85.1483 54.2322V54.451L84.9295 54.5605C84.1636 54.8887 83.2883 55.3264 82.5224 55.6546C81.6471 55.9828 80.8812 56.4205 80.0059 56.7487C80.7718 56.3111 81.5377 55.764 82.3036 55.3264C83.0695 54.8887 83.8354 54.451 84.6013 54.0134L84.4918 54.3416C84.273 53.0287 83.9448 51.7157 83.7259 50.4027L82.96 46.4638L82.1941 42.5249C82.0847 40.9931 81.8659 39.6801 81.5377 38.4766Z" fill="#D39484"/>
<path d="M95.2146 21.408C98.2782 20.9703 104.077 14.7337 101.889 8.27826C101.889 8.27826 101.342 11.7795 96.4182 11.7795C96.4182 11.7795 99.2629 10.6854 99.81 8.93475C99.81 8.93475 96.3087 11.0136 87.9933 5.98056C87.2274 5.5429 86.352 4.99583 85.4767 4.55817C84.2732 3.79227 82.9602 3.2452 81.6472 2.80755C71.9094 -0.803126 58.4514 -2.00669 53.7466 15.7184C53.5277 16.3749 53.5277 16.7032 53.5277 16.7032C53.5277 16.7032 46.9629 15.9373 46.9629 27.2069C46.9629 31.4741 48.4947 35.8507 50.5736 41.212C52.543 41.5402 53.856 44.2756 53.856 44.2756L54.8407 51.4969C54.8407 53.4664 54.7313 56.7488 54.0748 58.4994C53.0901 61.1254 51.6677 73.3798 67.7516 79.6164C83.8355 85.853 98.6064 79.2881 94.9958 58.4994C94.9958 58.4994 95.324 64.0796 92.8075 63.4231C90.291 62.7666 92.6981 55.4358 80.5531 56.7488C76.7236 56.3111 71.5811 53.1381 67.314 60.4689C64.0315 66.1584 57.9043 62.2195 57.4667 47.8862V44.2756C57.4667 44.0567 57.4667 43.8379 57.4667 43.6191V33.8812C57.4667 33.8812 61.9526 30.0517 62.4997 24.4716C92.0416 35.8507 101.014 21.408 101.014 21.408C101.014 21.408 98.6064 22.1739 95.2146 21.408ZM69.9399 61.6724C76.2859 63.6419 80.8813 61.016 80.8813 61.016C84.6014 63.8607 89.4156 63.6419 89.4156 63.6419C90.0721 64.5172 92.0416 70.8633 85.3673 73.3798C78.5836 75.8963 80.3343 68.4561 80.3343 68.4561L77.7083 68.0185C77.7083 68.0185 78.8025 73.8174 72.7847 73.2704C63.8127 72.3951 69.9399 61.6724 69.9399 61.6724Z" fill="#432918"/>
<path d="M82.9587 66.0487C82.6304 68.1276 80.8798 69.4406 79.0197 69.1123C77.1597 68.7841 76.0656 66.9241 76.3938 64.8452C76.722 62.7663 78.4727 61.4534 80.3327 61.7816C82.1928 62.1098 83.2869 63.9699 82.9587 66.0487Z" fill="#E08282"/>
<path d="M77.3791 64.0795C77.1603 64.0795 76.9415 63.9701 76.7227 63.9701C77.3791 62.4383 78.8015 61.563 80.3333 61.7818C82.1934 62.1101 83.2875 63.9701 82.9593 66.049C82.7404 67.1431 82.1934 68.1278 81.3181 68.6749C80.9898 66.4866 79.5674 64.4078 77.3791 64.0795Z" fill="#7C4A4A"/>
<path d="M73.2215 41.3213C73.3309 42.5249 73.2215 43.7284 72.7839 44.932C72.565 45.4791 72.1274 46.1356 71.5803 46.5732C71.0332 47.0109 70.2673 47.2297 69.5014 47.2297C68.8449 47.2297 68.079 46.9015 67.532 46.4638C66.9849 46.0261 66.5472 45.3697 66.3284 44.8226C65.8908 43.619 66.0002 42.3061 66.4378 41.2119C66.5472 42.4155 66.7661 43.5096 67.3131 44.4943C67.8602 45.3697 68.6261 45.9167 69.6108 46.0261C70.4862 46.1356 71.2521 45.5885 71.9085 44.6038C72.3462 43.5096 72.7839 42.5249 73.2215 41.3213Z" fill="#222228"/>
<path d="M92.1499 40.5552C92.3687 41.7587 92.3687 42.9623 92.0405 44.1658C91.8217 44.8223 91.4934 45.3694 90.9463 45.9165C90.3993 46.3541 89.6334 46.6824 88.9769 46.6824C88.3204 46.6824 87.5545 46.4635 87.0074 46.0259C86.4604 45.5882 86.0227 45.0412 85.6944 44.4941C85.1474 43.2905 85.1474 41.9776 85.3662 40.8834C85.585 42.087 86.0227 43.1811 86.5698 44.0564C87.1168 44.9317 87.9921 45.4788 88.9769 45.3694C89.8522 45.4788 90.6181 44.8223 91.0557 43.8376C91.4934 42.7435 91.8217 41.6493 92.1499 40.5552Z" fill="#222228"/>
<path opacity="0.1" d="M158.055 381.285C158.055 385.552 124.392 389.061 84.0907 389.061C43.7899 389.061 12.1182 385.552 12.1182 381.285C12.1182 377.018 43.7899 373.51 84.0907 373.51C124.392 373.51 158.055 376.923 158.055 381.285Z" fill="#1C1918"/>
<path d="M105.049 350.846L108.652 372.277H116.997L114.247 348.95L105.049 350.846Z" fill="#33343D"/>
<path d="M119.461 362.13C119.461 362.13 124.203 368.294 131.409 370.475C138.616 372.656 145.159 375.406 144.59 379.768C144.59 379.768 133.875 384.983 116.427 379.199V381.001L105.048 380.527V365.354L114.53 366.018L113.867 364.501L119.461 362.13Z" fill="#432918"/>
<path d="M124.108 379.294C139.659 383.277 143.642 378.82 144.59 378.535C144.685 378.915 144.685 379.294 144.685 379.673C144.685 379.673 133.97 384.889 116.522 379.104V380.906L105.143 380.432V377.397C109.125 377.682 112.634 376.354 124.108 379.294Z" fill="#543D31"/>
<path d="M65.2194 350.846L61.7109 372.277H53.3662L56.1162 348.95L65.2194 350.846Z" fill="#33343D"/>
<path d="M50.8063 362.13C50.8063 362.13 46.065 368.294 38.8583 370.475C31.6515 372.656 24.35 375.406 24.9189 379.768C24.9189 379.768 36.3928 384.983 53.8407 379.199V381.001L65.2197 380.527V365.354L55.7372 366.018L56.401 364.501L50.8063 362.13Z" fill="#432918"/>
<path d="M43.885 380.148C32.9801 381.854 25.8682 378.915 25.0147 378.63C24.9199 379.01 24.9199 379.389 24.9199 379.768C24.9199 379.768 36.3938 384.984 53.8417 379.199V381.001L65.2207 380.527V376.734C61.1432 376.924 54.4106 378.441 43.885 380.148Z" fill="#543D31"/>
<path d="M103.72 172.29L112.634 283.046L120.409 358.906C120.409 358.906 116.237 364.691 100.401 362.036L92.1514 282.572L82.0051 217.237H73.8501L68.4451 362.036C68.4451 362.036 61.6176 367.346 49.0059 362.605L51.4713 176.178L103.72 172.29Z" fill="#284C5C"/>
<path d="M109.124 98.9898C109.124 98.9898 107.417 151.618 104.004 178.264C104.004 178.264 91.0125 184.143 70.2457 183.29C55.5478 182.721 51.3755 179.591 51.3755 179.591L30.3242 93.1106C30.3242 93.1106 40.8498 87.9901 63.2287 87.9901C63.2287 87.9901 63.2287 87.2315 68.2544 89.9814C72.1423 92.0676 73.4698 106.102 73.4698 106.102C73.4698 106.102 74.2284 91.9727 76.4094 90.8348C79.8231 89.0331 79.1593 89.4125 82.0041 88.6539C90.4436 89.2228 99.1675 91.7831 109.029 93.3951L109.124 98.9898Z" fill="#3EAE96"/>
<path d="M87.9779 87.9899L82.5728 100.033L76.4092 90.7398L86.0814 84.2917L87.9779 87.9899Z" fill="#138B71"/>
<path d="M56.4014 87.7056L63.7029 99.4639L68.8235 89.8865L58.2031 82.9643L56.4014 87.7056Z" fill="#138B71"/>
<path d="M144.115 191.824C141.744 188.885 138.899 188.221 135.106 187.747C131.882 177.031 123.253 147.92 123.253 147.92L110.831 156.739C110.831 156.739 119.555 179.971 125.624 192.203C125.529 192.298 125.434 192.393 125.434 192.393C124.107 195.712 125.908 199.315 126.762 201.686C127.615 204.057 127.805 205.195 128.563 207.66C129.227 209.746 130.365 213.255 131.693 212.401C133.02 211.453 130.555 204.72 131.219 204.341C132.072 203.867 137.477 218.375 139.468 215.151C140.132 214.108 135.77 205.763 135.865 204.151C135.96 202.445 142.977 216.005 145.253 214.108C146.675 212.97 138.52 201.307 140.037 202.35C142.029 203.772 147.054 210.125 148.287 210.41C149.615 210.694 151.132 211.263 147.054 205.1C144.02 200.548 141.27 197.419 141.555 196.186C141.934 194.574 144.115 196.85 144.115 196.85C149.994 201.117 150.658 197.798 151.037 196.755C151.322 195.617 146.58 194.953 144.115 191.824Z" fill="#F7CEB2"/>
<path d="M137.193 183.479L122.116 139.196L108.935 93.3003C102.392 91.7831 88.6426 93.1106 97.4613 117.86L108.461 152.282L121.357 191.065L137.193 183.479Z" fill="#3EAE96"/>
<path d="M8.13552 175.419C8.13552 175.419 -1.82115 203.108 0.833964 205.668C0.833964 205.668 1.11844 207.66 3.67873 207.944C3.67873 207.944 4.05803 210.599 7.09245 209.936C7.09245 209.936 7.37692 211.832 8.23035 212.78C9.55791 214.298 12.5923 213.255 12.6871 206.522C12.6871 206.522 13.4457 208.608 15.5319 209.367C18.3767 210.505 17.0491 206.427 17.0491 206.427C17.0491 206.427 16.9543 202.634 16.3853 197.513C15.8164 192.393 14.2044 191.255 14.2044 191.255L24.9196 155.601L8.13552 175.419Z" fill="#F7CEB2"/>
<path d="M3.96289 183.953L17.1436 139.196L30.2295 93.3004C36.7725 91.7832 50.5222 93.1107 41.7034 117.86L30.7037 152.282L17.2385 189.359L3.96289 183.953Z" fill="#3EAE96"/>
<path d="M96.8906 183.195C101.442 182.057 103.623 180.635 103.718 180.635C105.046 180.161 104.856 181.583 105.046 183.1C105.235 185.092 104.951 186.229 103.718 186.609C103.528 186.704 102.485 187.936 97.9337 189.169C97.5544 187.178 97.2699 185.186 96.8906 183.195Z" fill="#432918"/>
<path d="M64.4615 184.902C69.4873 185.471 74.9872 185.566 80.9612 185.376C85.6076 185.281 89.6851 184.712 93.1936 184.048C93.0988 186.135 93.2885 188.221 93.6678 190.307C90.1592 191.065 85.8921 191.634 81.1508 191.729C79.1595 191.824 77.263 191.824 75.4613 191.729C71.289 191.634 67.4959 191.445 63.8926 190.971C64.1771 188.979 64.3667 186.893 64.4615 184.902Z" fill="#432918"/>
<path d="M49.6682 184.428C49.9527 182.911 50.0475 181.583 51.375 182.057C54.3146 183.195 57.6335 183.954 61.1421 184.523C61.0472 186.514 60.7628 188.505 60.4783 190.497C56.8749 189.833 53.4612 188.979 50.2371 187.652C49.3837 187.178 49.3837 185.945 49.6682 184.428Z" fill="#432918"/>
<path d="M72.7102 184.428L72.5205 192.488L84.2789 191.824L84.3737 184.333L72.7102 184.428ZM74.7015 185.85L82.4772 185.755L82.3824 190.686L74.6067 191.16L74.7015 185.85Z" fill="#ADADAD"/>
<path d="M2.54102 184.997L4.91165 175.514L21.3165 183.005L17.8079 191.065L2.54102 184.997Z" fill="#138B71"/>
<path d="M117.564 184.048L135.581 177.411L138.426 183.479L119.745 191.634L117.564 184.048Z" fill="#138B71"/>
<path d="M438.004 177.907L438.71 191.48C438.71 191.48 438.357 195.492 447.305 196.083C455.547 196.555 455.547 190.181 455.547 190.181L454.958 169.409L438.004 177.907Z" fill="#DDAB92"/>
<path d="M451.899 106.148C468.029 109.807 467.676 121.019 467.676 121.019C467.676 121.019 467.205 129.635 466.851 139.903C468.382 137.897 470.855 136.953 473.445 138.133C478.979 140.493 474.858 157.843 466.498 156.309C466.145 161.148 465.674 164.924 465.085 166.223C462.731 171.18 452.37 178.733 443.304 179.913C434.12 181.094 422.464 170.92 422.464 160.062C422.464 149.204 422.464 113.23 422.464 113.23C422.464 113.23 425.172 100.011 451.899 106.148Z" fill="#F7CEB2"/>
<path d="M443.067 129.635C443.067 129.635 443.185 129.399 443.421 129.045C443.656 128.691 444.009 128.219 444.598 127.628C445.187 127.156 445.893 126.566 446.835 126.212C447.306 125.976 447.777 125.858 448.248 125.74C448.719 125.622 449.19 125.622 449.778 125.622C450.367 125.622 450.838 125.622 451.427 125.858C452.016 125.976 452.486 126.094 452.957 126.448C453.193 126.566 453.428 126.684 453.664 126.802C453.899 126.92 454.017 127.156 454.253 127.274C454.37 127.392 454.606 127.628 454.724 127.747C454.841 127.865 454.959 128.101 455.077 128.219C455.312 128.573 455.43 128.927 455.548 129.163C455.665 129.517 455.665 129.753 455.783 129.989C455.901 130.461 455.901 130.697 455.901 130.697C455.901 130.697 455.665 130.579 455.194 130.461C454.959 130.343 454.724 130.225 454.488 130.107C454.253 129.989 453.899 129.871 453.664 129.753C453.428 129.635 453.075 129.517 452.722 129.517C452.604 129.517 452.369 129.399 452.251 129.399C452.133 129.399 451.898 129.399 451.78 129.281C451.427 129.163 451.074 129.163 450.838 129.163C450.485 129.163 450.132 129.163 449.778 129.163C449.425 129.163 449.072 129.163 448.719 129.163C448.483 129.163 448.366 129.163 448.13 129.163C447.895 129.163 447.777 129.163 447.541 129.163C446.717 129.281 446.011 129.281 445.422 129.399C444.716 129.399 444.127 129.517 443.774 129.517C443.303 129.635 443.067 129.635 443.067 129.635Z" fill="#664032"/>
<path d="M433.413 129.399C433.413 129.399 433.178 129.399 432.825 129.399C432.471 129.399 431.883 129.399 431.412 129.399C430.823 129.399 430.234 129.281 429.646 129.281C429.292 129.281 429.057 129.281 428.821 129.281C428.586 129.281 428.233 129.281 427.997 129.281C427.762 129.281 427.526 129.281 427.291 129.399C427.173 129.399 427.055 129.399 426.938 129.399C426.82 129.399 426.702 129.517 426.584 129.517C426.349 129.517 426.113 129.635 425.878 129.753C425.642 129.871 425.407 129.989 425.171 130.107C424.936 130.225 424.701 130.343 424.465 130.461C424.23 130.579 424.112 130.697 423.876 130.815C423.523 131.051 423.288 131.051 423.288 131.051C423.288 131.051 423.288 130.815 423.17 130.461C423.17 130.107 423.17 129.517 423.405 128.809C423.523 128.455 423.641 128.101 423.876 127.747C424.112 127.393 424.347 127.038 424.818 126.802C425.171 126.448 425.642 126.212 426.113 126.094C426.584 125.858 427.055 125.858 427.644 125.74C428.704 125.622 429.646 125.858 430.352 126.212C431.176 126.566 431.765 127.038 432.236 127.511C432.707 127.983 432.942 128.455 433.178 128.809C433.295 129.163 433.413 129.399 433.413 129.399Z" fill="#664032"/>
<path opacity="0.4" d="M472.738 141.083C469.912 139.667 467.322 144.27 467.204 149.227C469.559 148.873 469.912 151.588 468.617 153.594C473.327 154.42 475.799 142.618 472.738 141.083Z" fill="#B57662"/>
<path d="M436.828 134.474C436.71 135.182 436.475 135.89 436.357 136.598C436.239 137.306 436.004 138.014 435.886 138.723L435.062 142.971C434.826 144.388 434.591 145.804 434.238 147.22C434.002 148.637 433.767 150.053 433.413 151.469L433.296 151.115C434.12 151.587 434.944 152.059 435.768 152.531C436.592 153.003 437.417 153.476 438.241 154.066C437.299 153.712 436.475 153.358 435.533 152.885C434.591 152.531 433.767 152.059 432.943 151.705L432.707 151.587V151.351C433.06 148.519 433.413 145.568 434.002 142.735L434.473 140.611C434.709 139.903 434.826 139.195 435.062 138.486C435.768 137.188 436.121 135.89 436.828 134.474Z" fill="#D39484"/>
<path d="M457.666 119.485C458.255 125.386 463.082 129.635 463.082 129.635V140.139C463.082 140.375 463.082 140.611 463.082 140.847V144.742C464.142 144.624 465.084 144.624 466.144 144.506L466.615 140.965C466.615 140.965 468.027 138.015 470.147 137.66C472.384 131.877 474.032 127.156 474.032 122.553C474.032 110.515 466.968 111.223 466.968 111.223C466.968 111.223 466.85 110.869 466.732 110.161C461.67 90.9228 447.07 92.2211 436.827 96.2339C435.414 96.706 434.001 97.2961 432.706 98.1223C431.764 98.5944 430.822 99.1845 429.998 99.6566C421.05 105.086 417.282 102.843 417.282 102.843C417.871 104.614 420.932 105.912 420.932 105.912C415.634 105.912 415.045 102.135 415.045 102.135C412.572 109.099 418.813 115.826 422.109 116.18C418.459 116.888 416.222 116.18 416.222 116.18C416.222 116.18 425.877 131.759 457.666 119.485Z" fill="#664032"/>
<path d="M430.181 156.89C430.181 156.89 443.123 161.458 451.606 155.694C451.606 155.694 450.954 165.917 441.492 166.461C435.075 166.787 431.377 161.893 430.181 156.89Z" fill="#9F1818"/>
<path d="M440.404 162.764C436.162 162.764 434.313 163.851 434.313 163.96C436.162 165.591 438.555 166.57 441.492 166.462C444.211 166.353 446.168 165.374 447.582 164.178C447.038 163.851 443.993 162.764 440.404 162.764Z" fill="#E34848"/>
<path d="M431.704 157.326C431.813 157.978 432.139 158.74 432.248 159.175C432.357 159.392 432.465 159.501 432.683 159.61C440.949 162.764 446.278 161.132 449.106 159.283C449.214 159.175 449.323 159.066 449.323 158.957C449.541 158.522 449.976 157.434 450.193 156.456C443.559 160.045 435.076 158.304 431.704 157.326Z" fill="#FDFAEE"/>
<path d="M425.029 138.427C425.029 140.77 427.026 142.593 429.456 142.593C431.886 142.593 433.883 140.77 433.883 138.427C433.883 136.083 431.886 134.26 429.456 134.26C427.026 134.26 425.029 136.083 425.029 138.427Z" fill="#FDFAEE"/>
<path d="M427.806 141.378C428.587 141.551 429.282 141.638 430.15 141.638C431.452 141.638 432.667 141.031 433.448 140.076C432.754 141.551 431.191 142.506 429.455 142.506C427.633 142.506 426.07 141.465 425.376 139.989C426.07 140.597 426.852 141.204 427.806 141.378Z" fill="#DDAB92"/>
<path d="M425.899 138.167C425.899 139.555 427.028 140.684 428.503 140.684C429.892 140.684 431.107 139.555 431.107 138.167C431.107 136.778 429.979 135.649 428.503 135.649C427.028 135.649 425.899 136.778 425.899 138.167Z" fill="#633837"/>
<path d="M426.939 138.166C426.939 139.034 427.634 139.729 428.502 139.729C429.37 139.729 430.064 139.034 430.064 138.166C430.064 137.298 429.37 136.604 428.502 136.604C427.634 136.604 426.939 137.298 426.939 138.166Z" fill="#321413"/>
<path d="M432.541 137.352C431.549 136.94 430.557 136.528 429.515 136.46C427.871 136.302 426.592 136.637 425.176 137.303C425.596 135.084 426.814 132.809 430.187 133.138C433.488 133.368 433.935 136.244 433.884 138.342C433.507 137.935 433.03 137.6 432.541 137.352Z" fill="#DDAB92"/>
<path d="M429.709 137.472C429.709 137.732 429.448 137.993 429.188 137.993C428.927 137.993 428.667 137.732 428.667 137.472C428.667 137.211 428.927 136.951 429.188 136.951C429.448 136.951 429.709 137.211 429.709 137.472Z" fill="#FDFAEE"/>
<path d="M443.69 138.427C443.69 140.77 445.687 142.593 448.117 142.593C450.547 142.593 452.544 140.77 452.544 138.427C452.544 136.083 450.547 134.26 448.117 134.26C445.687 134.26 443.69 136.083 443.69 138.427Z" fill="#FDFAEE"/>
<path d="M446.467 141.378C447.249 141.551 447.943 141.638 448.811 141.638C450.113 141.638 451.328 141.031 452.109 140.076C451.415 141.551 449.853 142.506 448.117 142.506C446.294 142.506 444.731 141.465 444.037 139.989C444.731 140.597 445.513 141.204 446.467 141.378Z" fill="#DDAB92"/>
<path d="M444.561 138.167C444.561 139.555 445.689 140.684 447.164 140.684C448.553 140.684 449.768 139.555 449.768 138.167C449.768 136.778 448.64 135.649 447.164 135.649C445.689 135.649 444.561 136.778 444.561 138.167Z" fill="#633837"/>
<path d="M445.603 138.166C445.603 139.034 446.297 139.729 447.165 139.729C448.033 139.729 448.727 139.034 448.727 138.166C448.727 137.298 448.033 136.604 447.165 136.604C446.297 136.604 445.603 137.298 445.603 138.166Z" fill="#321413"/>
<path d="M451.202 137.352C450.21 136.94 449.219 136.528 448.176 136.46C446.532 136.302 445.253 136.637 443.837 137.303C444.257 135.084 445.475 132.809 448.848 133.138C452.149 133.368 452.596 136.244 452.546 138.343C452.168 137.935 451.691 137.6 451.202 137.352Z" fill="#DDAB92"/>
<path d="M448.37 137.472C448.37 137.732 448.109 137.993 447.849 137.993C447.589 137.993 447.328 137.732 447.328 137.472C447.328 137.212 447.589 136.951 447.849 136.951C448.109 136.951 448.37 137.212 448.37 137.472Z" fill="#FDFAEE"/>
<path opacity="0.1" d="M377.473 491.757C377.473 495.238 410.302 498.024 450.89 498.024C491.479 498.024 524.308 495.238 524.308 491.757C524.308 488.275 491.479 485.489 450.89 485.489C410.302 485.489 377.473 488.275 377.473 491.757Z" fill="#1C1918"/>
<path d="M406.422 258.273C406.422 258.273 385.531 307.318 382.049 304.035C378.567 300.752 374.19 302.144 377.174 293.788C380.159 285.432 393.191 248.026 393.191 248.026L406.422 258.273Z" fill="#F7CEB2"/>
<path d="M515.255 252.603C515.255 252.603 494.364 282.049 473.572 287.72L473.373 277.971C473.373 277.971 484.714 268.818 495.359 253.001C505.904 237.183 515.255 252.603 515.255 252.603Z" fill="#F7CEB2"/>
<path d="M471.383 458.331L474.964 480.416H483.619L480.734 456.341L471.383 458.331Z" fill="#16333C"/>
<path d="M486.206 469.97C486.206 469.97 491.081 476.337 498.542 478.526C506.003 480.714 512.668 483.599 512.071 488.076C512.071 488.076 501.029 493.448 483.122 487.479V489.369L471.383 488.872V473.253L481.132 473.949L480.436 472.358L486.206 469.97Z" fill="#333030"/>
<path d="M490.883 487.678C506.899 491.756 510.978 487.18 511.973 486.882C512.072 487.28 512.072 487.678 512.072 488.076C512.072 488.076 501.03 493.448 483.123 487.479V489.369L471.384 488.871V485.787C475.562 485.986 479.044 484.594 490.883 487.678Z" fill="#1C1918"/>
<path d="M484.514 479.023C484.713 479.023 484.813 478.924 484.912 478.824C487.3 475.243 489.986 474.248 490.085 474.248C490.384 474.148 490.483 473.85 490.384 473.552C490.284 473.253 489.986 473.154 489.687 473.253C489.588 473.253 486.603 474.347 484.017 478.227C483.818 478.426 483.917 478.824 484.116 478.924C484.315 479.023 484.415 479.023 484.514 479.023Z" fill="#1C1918"/>
<path d="M487.201 480.216C487.4 480.216 487.499 480.117 487.599 480.017C490.086 476.436 492.772 475.441 492.772 475.441C493.07 475.342 493.17 475.043 493.07 474.745C492.971 474.446 492.672 474.347 492.374 474.446C492.274 474.446 489.29 475.541 486.703 479.421C486.504 479.62 486.604 480.017 486.803 480.117C487.002 480.216 487.101 480.216 487.201 480.216Z" fill="#1C1918"/>
<path d="M489.887 481.411C490.086 481.411 490.186 481.311 490.285 481.212C492.673 477.63 495.359 476.636 495.458 476.636C495.757 476.536 495.856 476.238 495.757 475.939C495.657 475.641 495.359 475.541 495.06 475.641C494.961 475.641 491.976 476.735 489.39 480.615C489.191 480.814 489.29 481.212 489.489 481.311C489.688 481.411 489.788 481.411 489.887 481.411Z" fill="#1C1918"/>
<path d="M431.292 458.331L427.711 480.416H419.056L421.941 456.341L431.292 458.331Z" fill="#16333C"/>
<path d="M416.47 469.97C416.47 469.97 411.595 476.337 404.134 478.526C396.673 480.714 389.212 483.599 389.709 488.076C389.709 488.076 401.548 493.448 419.455 487.479V489.369L431.193 488.872V473.253L421.444 473.949L422.141 472.358L416.47 469.97Z" fill="#333030"/>
<path d="M409.308 488.474C398.066 490.265 390.804 487.181 389.909 486.882C389.809 487.28 389.809 487.678 389.809 488.076C389.809 488.076 401.647 493.448 419.554 487.479V489.369L431.293 488.872V484.992C427.115 485.092 420.151 486.783 409.308 488.474Z" fill="#1C1918"/>
<path d="M418.162 479.023C417.963 479.023 417.863 478.924 417.764 478.824C415.376 475.243 412.69 474.248 412.591 474.248C412.292 474.148 412.193 473.85 412.292 473.552C412.392 473.253 412.69 473.154 412.989 473.253C413.088 473.253 416.073 474.347 418.659 478.227C418.858 478.426 418.759 478.824 418.56 478.924C418.361 479.023 418.261 479.023 418.162 479.023Z" fill="#1C1918"/>
<path d="M415.476 480.217C415.277 480.217 415.178 480.117 415.078 480.018C412.691 476.437 410.005 475.442 409.905 475.442C409.607 475.342 409.507 475.044 409.607 474.745C409.706 474.447 410.005 474.347 410.303 474.447C410.403 474.447 413.387 475.541 415.974 479.421C416.173 479.62 416.073 480.018 415.874 480.117C415.675 480.217 415.576 480.217 415.476 480.217Z" fill="#1C1918"/>
<path d="M412.79 481.411C412.591 481.411 412.491 481.311 412.392 481.212C410.004 477.63 407.318 476.636 407.219 476.636C406.92 476.536 406.821 476.238 406.92 475.939C407.02 475.641 407.318 475.541 407.617 475.641C407.716 475.641 410.701 476.735 413.287 480.615C413.486 480.814 413.387 481.212 413.188 481.311C412.989 481.411 412.889 481.411 412.79 481.411Z" fill="#1C1918"/>
<path d="M469.293 282.049L478.247 388.594L487.2 466.588C487.2 466.588 482.823 472.557 466.607 469.871L454.371 393.469L444.622 320.847H439.25L434.674 469.871C434.674 469.871 427.611 475.243 414.678 470.368L416.17 278.567L469.293 282.049Z" fill="#16333C"/>
<path d="M409.804 199.181C409.804 199.181 411.595 253.299 415.077 280.756C415.077 280.756 428.507 286.725 449.796 285.929C464.917 285.332 469.195 282.049 469.195 282.049L493.866 190.626C493.866 190.626 479.939 187.741 456.959 187.741L446.314 197.589C446.314 197.589 443.429 189.929 437.659 188.437C429.004 189.034 419.553 190.029 409.406 191.72L409.804 199.181Z" fill="white"/>
<path d="M495.359 253.001L475.164 196.793L493.866 190.625L515.255 251.309L495.359 253.001Z" fill="white"/>
<path d="M423.036 286.028C418.46 285.034 416.271 283.74 416.172 283.74C414.779 283.342 414.978 284.636 414.879 285.929C414.68 287.72 414.978 288.714 416.172 289.112C416.371 289.212 417.465 290.306 422.041 291.4C422.34 289.61 422.638 287.819 423.036 286.028Z" fill="#1C1918"/>
<path d="M455.865 287.421C450.792 287.919 445.221 288.018 439.152 287.819C434.477 287.72 430.298 287.222 426.816 286.625C426.916 288.516 426.717 290.306 426.319 292.196C429.9 292.793 434.178 293.39 439.053 293.49C441.042 293.49 442.933 293.589 444.823 293.49C449.001 293.39 452.881 293.191 456.562 292.793C456.164 291.102 455.965 289.311 455.865 287.421Z" fill="#1C1918"/>
<path d="M470.887 287.023C470.588 285.63 470.489 284.436 469.096 284.934C466.112 285.929 462.829 286.625 459.247 287.122C459.347 288.913 459.645 290.704 459.844 292.395C463.525 291.798 467.007 291.002 470.19 289.808C471.185 289.411 471.086 288.416 470.887 287.023Z" fill="#1C1918"/>
<path d="M447.507 287.123L447.606 294.385L435.768 293.788L435.669 287.023L447.507 287.123ZM445.517 288.317L437.658 288.217L437.758 292.694L445.617 293.092L445.517 288.317Z" fill="#ADADAD"/>
<path d="M446.313 197.689L449.099 188.039L455.267 190.924L446.313 197.689Z" fill="#D8CAC7"/>
<path d="M445.519 188.934L446.314 197.689L441.34 191.421L445.519 188.934Z" fill="#D8CAC7"/>
<path d="M450.889 191.422C450.889 191.422 447.706 192.118 443.726 191.72L440.344 195.699L443.329 199.977L431.689 267.625L440.643 276.578L451.586 268.818L449.098 200.474L452.779 195.202L450.889 191.422Z" fill="#16333C"/>
<path d="M431.69 188.337L439.25 198.485L445.518 188.934L435.569 182.269L431.69 188.337Z" fill="#C4C4C4"/>
<path d="M463.922 186.945L454.372 197.888L449.099 188.039L460.142 180.976L463.922 186.945Z" fill="#C4C4C4"/>
<path d="M491.678 246.534L514.758 242.555L518.438 252.006L493.369 256.283L491.678 246.534Z" fill="#C4C4C4"/>
<path d="M477.85 286.128C477.85 286.128 466.111 294.882 470.09 275.384C470.09 275.384 455.665 271.305 468.896 271.106C468.896 271.106 454.869 264.441 470.09 268.221C470.09 268.221 459.545 254.393 475.562 268.42C475.562 268.42 478.745 271.604 477.352 280.159L477.85 286.128Z" fill="#F7CEB2"/>
<path d="M409.505 191.819L390.902 252.603L406.421 258.273L414.479 237.979L409.505 191.819Z" fill="white"/>
<path d="M391.201 246.634L409.307 254.095L405.427 262.75L387.62 254.791L391.201 246.634Z" fill="#C4C4C4"/>
<path d="M388.515 296.772C388.515 296.772 383.143 290.903 378.667 291.201C374.19 291.5 370.807 291.997 367.923 295.28C365.038 298.563 359.765 299.16 360.063 300.254C360.362 301.448 360.959 305.129 367.624 300.752C367.624 300.752 370.111 298.364 370.509 300.155C370.807 301.647 367.525 304.83 364.043 309.705C359.268 316.37 360.959 315.773 362.451 315.574C363.844 315.276 369.813 308.511 372.001 307.119C373.692 306.024 364.242 318.459 365.734 319.753C368.221 321.941 376.577 307.417 376.577 309.307C376.677 311.098 371.404 320.051 372.101 321.245C374.09 324.926 380.855 309.208 381.75 309.805C382.447 310.202 379.462 317.564 380.756 318.559C382.148 319.653 383.541 315.873 384.436 313.585C385.431 310.899 385.63 309.606 386.725 307.019C387.62 304.333 389.808 300.453 388.515 296.772Z" fill="#F7CEB2"/>
</svg>
