<svg width="182" height="68" viewBox="0 0 182 68" fill="none" xmlns="http://www.w3.org/2000/svg">
<path d="M17.7538 55.7068C13.9052 54.9111 10.3141 53.136 7.49486 50.6359C0.257247 44.2176 -1.97957 34.1349 1.8439 25.1634C2.78285 22.9603 4.30932 20.7244 6.20066 18.782L7.8681 17.0695L7.98571 27.0927C8.09828 36.6867 8.12365 37.17 8.57816 38.379C9.48746 40.7977 10.4623 42.3376 12.1404 44.0064C16.4754 48.317 22.834 49.3928 28.2393 46.7301C33.32 44.2274 36.523 38.7855 36.1508 33.2886C35.9008 29.5963 34.6572 26.8888 31.9722 24.1912C29.942 22.1514 27.5534 20.8189 24.9528 20.2756C22.307 19.7229 22.4339 19.6421 22.4339 21.8783V23.8088L23.8845 24.0756C29.502 25.1091 33.2173 30.6171 32.0464 36.1757C31.6724 37.951 30.8383 39.5187 29.4992 40.9629C27.4643 43.1575 24.6014 44.2065 22.1015 44.2017C17.968 44.1937 14.5164 41.8484 12.8435 38.3801C12.8435 38.3801 12.4053 37.3888 12.2645 36.7762C11.4363 33.1736 11.9656 25.5898 11.9656 25.5898L11.9015 14.5011L12.5571 14.1625C12.9177 13.9764 13.2635 13.824 13.3256 13.824C13.3877 13.824 13.4665 18.9171 13.5008 25.1419C13.5008 25.1419 12.7046 33.3019 13.6885 36.4289C13.8304 36.88 14.0999 37.6517 14.0999 37.6517C14.9623 39.4061 16.3446 40.9494 18.1406 41.7988C19.5039 42.4436 20.1904 42.7354 22.2073 42.7354C23.5252 42.7354 24.6926 42.3201 26.036 41.7032C27.6195 40.976 29.4361 39.0479 30.1074 37.2875C31.9569 32.4374 29.3816 27.2193 24.4202 25.7642C22.3926 25.1696 22.4339 25.1368 22.4339 27.3383V29.2612L23.4072 29.5212C26.9156 30.4581 27.9861 35.1534 25.232 37.566C24.2589 38.4184 23.3821 38.7952 21.8482 38.7952C20.2093 38.7952 18.6361 37.8047 17.8273 36.2855C17.3415 35.3729 17.3004 34.5073 17.3004 34.1108C17.3004 30.4487 17.221 23.8624 17.221 23.8624L17.1554 12.5647L17.6591 12.4398C17.9361 12.3711 19.0558 12.2011 20.1472 12.062C23.8489 11.5903 29.3253 12.7999 33.0044 14.9017C38.0203 17.7673 41.8156 22.6899 43.3958 28.3796C43.9394 30.3367 44 30.9058 44 34.0541C44 37.1884 43.938 37.7763 43.406 39.6906C41.2567 47.4236 35.7895 52.9517 27.972 55.2962C26.3268 55.7896 25.5561 55.8837 22.653 55.9455C20.3102 55.9954 18.7917 55.9214 17.7538 55.7068Z" fill="#C60C30"/>
<path d="M58.7998 28.4V41H54.5518V31.604H52.3918V28.4H58.7998ZM67.3672 41.288C66.0352 41.288 64.8352 41.012 63.7672 40.46C62.6992 39.896 61.8592 39.116 61.2472 38.12C60.6472 37.112 60.3472 35.972 60.3472 34.7C60.3472 33.428 60.6472 32.294 61.2472 31.298C61.8592 30.29 62.6992 29.51 63.7672 28.958C64.8352 28.394 66.0352 28.112 67.3672 28.112C68.5912 28.112 69.6832 28.328 70.6432 28.76C71.6032 29.192 72.3952 29.816 73.0192 30.632L70.3372 33.026C69.5572 32.042 68.6392 31.55 67.5832 31.55C66.6952 31.55 65.9812 31.838 65.4412 32.414C64.9012 32.978 64.6312 33.74 64.6312 34.7C64.6312 35.66 64.9012 36.428 65.4412 37.004C65.9812 37.568 66.6952 37.85 67.5832 37.85C68.6392 37.85 69.5572 37.358 70.3372 36.374L73.0192 38.768C72.3952 39.584 71.6032 40.208 70.6432 40.64C69.6832 41.072 68.5912 41.288 67.3672 41.288ZM79.7322 28.4H90.6582V31.604H83.9082V33.062H86.9142C88.4502 33.062 89.6262 33.392 90.4422 34.052C91.2702 34.7 91.6842 35.642 91.6842 36.878C91.6842 38.162 91.2162 39.17 90.2802 39.902C89.3442 40.634 88.0422 41 86.3742 41H79.7322V28.4ZM86.0862 38.03C86.5062 38.03 86.8302 37.94 87.0582 37.76C87.2982 37.58 87.4182 37.322 87.4182 36.986C87.4182 36.338 86.9742 36.014 86.0862 36.014H83.9082V38.03H86.0862ZM93.1443 28.4H97.3203V34.952L101.658 28.4H105.654V41H101.478V34.466L97.1583 41H93.1443V28.4ZM118.62 31.694H114.93V41H110.754V31.694H107.064V28.4H118.62V31.694ZM126.087 28.4C127.251 28.4 128.265 28.592 129.129 28.976C129.993 29.36 130.659 29.912 131.127 30.632C131.595 31.352 131.829 32.192 131.829 33.152C131.829 34.112 131.595 34.952 131.127 35.672C130.659 36.392 129.993 36.944 129.129 37.328C128.265 37.712 127.251 37.904 126.087 37.904H124.269V41H120.021V28.4H126.087ZM125.817 34.628C126.393 34.628 126.825 34.502 127.113 34.25C127.401 33.986 127.545 33.62 127.545 33.152C127.545 32.684 127.401 32.324 127.113 32.072C126.825 31.808 126.393 31.676 125.817 31.676H124.269V34.628H125.817ZM133.117 28.4H137.293V34.952L141.631 28.4H145.627V41H141.451V34.466L137.131 41H133.117V28.4ZM156.667 34.52L160.393 41H155.605L153.193 36.446H152.005V41H147.757V28.4H152.005V33.098H153.301L155.983 28.4H160.411L156.667 34.52ZM167.508 41.288C166.176 41.288 164.976 41.012 163.908 40.46C162.84 39.896 162 39.116 161.388 38.12C160.788 37.112 160.488 35.972 160.488 34.7C160.488 33.428 160.788 32.294 161.388 31.298C162 30.29 162.84 29.51 163.908 28.958C164.976 28.394 166.176 28.112 167.508 28.112C168.732 28.112 169.824 28.328 170.784 28.76C171.744 29.192 172.536 29.816 173.16 30.632L170.478 33.026C169.698 32.042 168.78 31.55 167.724 31.55C166.836 31.55 166.122 31.838 165.582 32.414C165.042 32.978 164.772 33.74 164.772 34.7C164.772 35.66 165.042 36.428 165.582 37.004C166.122 37.568 166.836 37.85 167.724 37.85C168.78 37.85 169.698 37.358 170.478 36.374L173.16 38.768C172.536 39.584 171.744 40.208 170.784 40.64C169.824 41.072 168.732 41.288 167.508 41.288Z" fill="black"/>
</svg>
